<?xml version="1.0" encoding="utf-8"?><svg xmlns="http://www.w3.org/2000/svg" xmlns:xlink="http://www.w3.org/1999/xlink"><symbol fill="none" viewBox="0 0 24 24" id="button-right-arrow" xmlns="http://www.w3.org/2000/svg"><circle cx="12" cy="12" r="12" fill="#193768"/><path d="M8.5 12h7M12 8.5l3.5 3.5-3.5 3.5" stroke="#fff" stroke-width="2" stroke-linecap="round" stroke-linejoin="round"/></symbol><symbol fill="none" viewBox="0 0 13 22" id="facebook-generate" xmlns="http://www.w3.org/2000/svg"><path d="m11.794 12.375.652-3.981H8.37V5.81c0-1.09.57-2.151 2.394-2.151h1.853V.269S10.937 0 9.329 0C5.973 0 3.78 1.907 3.78 5.36v3.034H.05v3.981h3.73V22h4.592v-9.625h3.423Z" fill="#fff"/></symbol><symbol fill="none" viewBox="0 0 298 82" id="hero-section-rounded-arrow" xmlns="http://www.w3.org/2000/svg"><path d="M7.088 40.87c14.931 1.694 29.232 4.276 45.199 5.62 3.576.277 6.441-3.627 3.6-4.702-6.871-2.658-14.537-4.551-22.324-6.235 11.17-1.225 22.83-3.493 35.102-5.18 18.498-2.541 37.324-4.47 55.397-5.396 16.958-.863 33.328-.232 46.455 3.067-21.289 8.447-47.639 21.934-53.435 36.474-6.315 15.78 16.663 17.675 38.549 10.977 22.592-6.911 43.711-21.835 46.402-36.03.953-5.078-.67-9.2-3.86-12.488 19.146-5.331 37.445-7.433 52.958-5.03 15.543 2.348 28.298 9.206 37.078 20.553 2.015 2.593 6.334.366 4.645-2.678-8.484-15.102-22.634-23.755-40.66-26.334-17.976-2.664-39.828.746-62.579 7.82-5.591-2.515-12.336-4.114-18.689-5.24-18.628-3.407-42.035-2.318-65.737-.319-23.754 2.09-47.801 5.09-68.912 7.583-2.878.36-5.636.764-8.327 1.25.397-.42.805-.827 1.196-1.25C33.53 18.607 39.234 13.334 40.352 7.5c.672-3.547-3.469-5.624-7.007-3.76-5.444 2.888-8.75 8.477-12.734 12.824-5.051 5.505-10.52 10.67-16.03 15.543-2.926 2.588-1.606 8.312 2.504 8.764l.003-.002zM178.044 56.92c-16.925 12.998-56.731 20.882-45.862 2.322 6.152-10.505 31.604-20.938 49.201-26.975 8.009 5.061 10.783 13.728-3.339 24.653z" fill="#FEDE65"/></symbol><symbol fill="none" viewBox="0 0 21 21" id="linkedIn-generate" xmlns="http://www.w3.org/2000/svg"><path fill-rule="evenodd" clip-rule="evenodd" d="M7.929 7.803h3.714v1.85c.535-1.065 1.907-2.02 3.968-2.02 3.951 0 4.889 2.118 4.889 6.003v7.198h-4V14.52c0-2.213-.535-3.46-1.897-3.46-1.889 0-2.674 1.345-2.674 3.46v6.313h-4V7.803ZM1.07 20.663h4V7.633h-4v13.03Zm4.573-17.28a2.53 2.53 0 0 1-.753 1.803 2.59 2.59 0 0 1-3.638.001A2.548 2.548 0 0 1 .5 3.382c0-.676.27-1.325.753-1.802a2.583 2.583 0 0 1 3.637 0c.482.478.753 1.126.753 1.803Z" fill="#fff"/></symbol><symbol fill="none" viewBox="0 0 20 21" id="navbar-chevron-down" xmlns="http://www.w3.org/2000/svg"><path d="M6.175 7.4 10 11.225 13.825 7.4 15 8.583l-5 5-5-5L6.175 7.4Z" fill="#000"/></symbol><symbol fill="none" viewBox="0 0 77 20" id="nest-logo" xmlns="http://www.w3.org/2000/svg"><path fill-rule="evenodd" clip-rule="evenodd" d="m12.122 6.38-.825 1.577v-.002l-.85-1.577c-.026-.05-.093-.113-.185 0h.001a2.15 2.15 0 0 1-.828.572 2.216 2.216 0 0 1-1.969-.184 2.11 2.11 0 0 1-.7-.716 2.03 2.03 0 0 1 .558-2.68c.273-.203.593-.34.931-.398l-.074.01c-.572-.424-1.006-.457-1.127-.402-1.656.718-2.012 2.847-.064 4.938a.054.054 0 0 1-.002.066.058.058 0 0 1-.065.017C4.24 6.248 4.685 3.517 4.899 2.2c.05-.308.088-.538.07-.655-.068-.44-.33-.85-.51-1.133-.044-.07-.084-.131-.114-.184a.15.15 0 0 1 .003-.157A.163.163 0 0 1 4.493 0c.248.015.675.273 1.25.621 1.25.756 3.2 1.937 5.536 1.967 2.336-.03 4.288-1.211 5.538-1.967.574-.348 1-.606 1.248-.622a.163.163 0 0 1 .085.017.156.156 0 0 1 .063.057.15.15 0 0 1 0 .16c-.03.051-.069.11-.111.178-.18.282-.445.696-.514 1.14-.018.115.02.344.07.651.214 1.313.659 4.047-2.023 5.4a.059.059 0 0 1-.066-.017.053.053 0 0 1-.002-.065c1.948-2.092 1.593-4.22-.064-4.939-.12-.052-.555-.022-1.127.401l-.03-.004c.337.064.653.204.923.41.269.206.483.47.625.773a2.022 2.022 0 0 1-.1 1.905c-.172.287-.412.53-.702.708a2.215 2.215 0 0 1-1.963.174 2.149 2.149 0 0 1-.824-.572l.008.007c-.094-.118-.165-.053-.191-.004ZM9.373 3.918a1.607 1.607 0 0 0-1.872.25 1.472 1.472 0 0 0-.257 1.811c.159.272.4.49.692.624.291.134.619.178.937.124.318-.053.611-.2.84-.42.228-.222.38-.506.435-.814.055-.307.01-.624-.13-.906a1.534 1.534 0 0 0-.645-.669Zm5.901 2.058a1.472 1.472 0 0 0-.26-1.81 1.607 1.607 0 0 0-1.872-.246 1.534 1.534 0 0 0-.645.669c-.138.282-.183.6-.127.907.055.308.207.591.436.812.229.22.522.367.84.42.319.053.646.009.938-.126.29-.135.532-.353.69-.626Zm-8.25 13.13c.654.281 1.335.498 2.032.648.35-1.232.82-2.428 1.407-3.573a20.21 20.21 0 0 1 4.608-5.905h-3.009a22.104 22.104 0 0 0-3.876 5.727l-.037.083c-.45.979-.826 1.989-1.125 3.02Zm.064-4.394c.403-.796.852-1.57 1.345-2.317h-.005a3.937 3.937 0 0 1-1.508-2.119H4.096c.148.902.49 1.763 1.006 2.527a6.599 6.599 0 0 0 1.986 1.909Zm2.156-3.477.003.002h-.005l.002-.002Zm.76-.959c-.263.314-.516.633-.76.96a2.558 2.558 0 0 1-.791-.96h1.552Zm-7.498 0h-1.9c.121 1.635.637 3.219 1.506 4.625a10.64 10.64 0 0 0 3.496 3.473c.235-.768.51-1.525.825-2.266a8.144 8.144 0 0 1-2.654-2.48 7.831 7.831 0 0 1-1.273-3.352Zm9.36 6.58c-.513 1-.93 2.044-1.247 3.118a11.116 11.116 0 0 0 2.257-.072 16.322 16.322 0 0 1 3.353-5.668 16.95 16.95 0 0 1 5.369-3.958h-4.073a18.782 18.782 0 0 0-5.659 6.58Zm10.085-5.054c-3.295 1.64-5.87 4.373-7.255 7.699a10.9 10.9 0 0 0 4.684-2.917 10.389 10.389 0 0 0 2.571-4.782Zm28.242 2.958c.744.206 1.51.308 2.301.308.915 0 1.691-.135 2.33-.406.638-.27 1.115-.635 1.43-1.092.323-.466.485-.98.485-1.54 0-.653-.176-1.171-.529-1.554a3.048 3.048 0 0 0-1.243-.84 16.559 16.559 0 0 0-1.872-.532c-.734-.159-1.282-.317-1.644-.476-.352-.168-.529-.42-.529-.756s.153-.607.458-.812c.314-.205.795-.308 1.443-.308.924 0 1.849.257 2.773.77L56.31 5.8a5.595 5.595 0 0 0-1.6-.644 7.843 7.843 0 0 0-1.873-.224c-.914 0-1.69.135-2.33.406-.628.27-1.1.64-1.414 1.106-.315.457-.472.97-.472 1.54 0 .653.172 1.176.515 1.568.352.392.771.677 1.257.854.486.178 1.11.355 1.873.532.495.112.886.215 1.172.308.295.093.533.22.714.378.19.15.286.34.286.574 0 .317-.157.574-.472.77-.314.187-.8.28-1.457.28-.591 0-1.182-.093-1.773-.28a5.378 5.378 0 0 1-1.529-.742l-.786 1.708c.448.336 1.039.612 1.772.826ZM37.252 5.1v9.8h-1.9l-4.989-5.95v5.95h-2.286V5.1h1.915l4.973 5.95V5.1h2.287Zm10.113 7.98v1.82h-7.746V5.1h7.56v1.82h-5.26v2.128h4.646v1.764H41.92v2.268h5.445Zm12.889-6.132h-3.202V5.1h8.718v1.848H62.57V14.9h-2.315V6.948ZM71.296 5h-3.36v.829h1.2V9h.952V5.829h1.208V5Zm3.905 1.716L75.209 9h.894l-.017-4h-.775l-1.378 2.41L72.521 5h-.783v4h.894V6.773l1.072 1.813h.425l1.072-1.87Z" fill="#fff"/></symbol><symbol fill="none" viewBox="0 0 24 24" id="white-cash-icon" xmlns="http://www.w3.org/2000/svg"><path d="M13.5 13.5a2.893 2.893 0 0 1-2.125-.875A2.893 2.893 0 0 1 10.5 10.5c0-.833.292-1.542.875-2.125A2.893 2.893 0 0 1 13.5 7.5c.833 0 1.542.292 2.125.875s.875 1.292.875 2.125-.292 1.542-.875 2.125a2.893 2.893 0 0 1-2.125.875Zm-8 3.5c-.417 0-.77-.146-1.063-.438A1.447 1.447 0 0 1 4 15.5v-10c0-.417.146-.77.438-1.063A1.447 1.447 0 0 1 5.5 4h16c.417 0 .77.146 1.063.438.291.291.437.645.437 1.062v10c0 .417-.146.77-.438 1.063A1.446 1.446 0 0 1 21.5 17h-16ZM8 15.5h11c0-.7.242-1.292.725-1.775C20.208 13.242 20.8 13 21.5 13V8c-.7 0-1.292-.242-1.775-.725C19.242 6.792 19 6.2 19 5.5H8c0 .7-.242 1.292-.725 1.775C6.792 7.758 6.2 8 5.5 8v5c.7 0 1.292.242 1.775.725C7.758 14.208 8 14.8 8 15.5ZM20 20H2.5c-.417 0-.77-.146-1.063-.438A1.447 1.447 0 0 1 1 18.5V7h1.5v11.5H20V20Z" fill="#fff"/></symbol><symbol fill="none" viewBox="0 0 15 16" id="white-logout-icon" xmlns="http://www.w3.org/2000/svg"><path d="M5.6 12V9.6H0V6.4h5.6V4l4 4-4 4Zm0-12h7.2a1.6 1.6 0 0 1 1.6 1.6v12.8a1.6 1.6 0 0 1-1.6 1.6H5.6A1.6 1.6 0 0 1 4 14.4v-1.6h1.6v1.6h7.2V1.6H5.6v1.6H4V1.6A1.6 1.6 0 0 1 5.6 0Z" fill="#fff"/></symbol><symbol fill="none" viewBox="0 0 24 24" id="white-phone-icon" xmlns="http://www.w3.org/2000/svg"><path d="M7.218 10.924a13.465 13.465 0 0 0 5.858 5.858l1.955-1.955c.24-.24.596-.32.907-.214.995.33 2.07.507 3.173.507.489 0 .889.4.889.889v3.102c0 .489-.4.889-.889.889C10.764 20 4 13.236 4 4.889 4 4.4 4.4 4 4.889 4H8c.489 0 .889.4.889.889 0 1.111.178 2.178.507 3.173a.892.892 0 0 1-.223.907l-1.955 1.955Z" fill="#fff"/></symbol></svg>