<?xml version="1.0" encoding="utf-8"?><svg xmlns="http://www.w3.org/2000/svg" xmlns:xlink="http://www.w3.org/1999/xlink"><symbol fill="none" viewBox="0 0 24 24" id="all-services-icon" xmlns="http://www.w3.org/2000/svg"><path d="M4 10V4h6v6H4Z" fill="#4679E6" stroke="#4679E6" stroke-width="2"/><path d="M20.177 10.177a.25.25 0 0 1-.177.073h-6.25v-6.5H20a.25.25 0 0 1 .25.25v6a.25.25 0 0 1-.073.177Z" stroke="#4679E6" stroke-width="1.5"/><path d="M3 14v6a1 1 0 0 0 1 1h7v-8H4a1 1 0 0 0-1 1ZM20 13h-7v8h7a1 1 0 0 0 1-1v-6a1 1 0 0 0-1-1Z" fill="#4679E6"/></symbol><symbol fill="none" viewBox="0 0 985 1236" id="circle-pattern" xmlns="http://www.w3.org/2000/svg"><circle cx="367" cy="618" r="617.5" stroke="#E7F0FF"/><circle cx="367.66" cy="617.34" r="498.121" stroke="#E7F0FF"/><circle cx="367" cy="618" r="378.742" stroke="#E7F0FF"/><circle cx="367" cy="618" r="262.661" stroke="#E7F0FF"/><circle cx="367" cy="618" r="151.856" stroke="#E7F0FF"/></symbol><symbol fill="none" viewBox="0 0 10 7" id="dropdown-arrow" xmlns="http://www.w3.org/2000/svg"><path d="m1 1.167 4 4 4-4" stroke="#fff" stroke-width="2" stroke-linecap="round" stroke-linejoin="round"/></symbol><symbol fill="none" viewBox="0 0 11 19" id="facebook-generate" xmlns="http://www.w3.org/2000/svg"><path d="m9.61 10.626.533-3.258H6.808V5.254c0-.891.466-1.76 1.96-1.76h1.515V.721S8.908.5 7.593.5c-2.746 0-4.54 1.56-4.54 4.384v2.483H0v3.258h3.052V18.5H6.81v-7.874h2.8Z" fill="#4679E6"/></symbol><symbol fill="none" viewBox="0 0 18 17" id="linkedIn-generate" xmlns="http://www.w3.org/2000/svg"><path fill-rule="evenodd" clip-rule="evenodd" d="M6.857 5.974h3.095v1.542c.446-.887 1.59-1.683 3.307-1.683 3.293 0 4.074 1.765 4.074 5.003v5.998H14v-5.26c0-1.845-.446-2.885-1.58-2.885-1.575 0-2.23 1.121-2.23 2.884v5.26H6.858V5.975ZM1.142 16.692h3.333V5.832H1.142v10.86Zm3.81-14.4a2.108 2.108 0 0 1-.627 1.502 2.158 2.158 0 0 1-3.032 0 2.123 2.123 0 0 1-.626-1.502c0-.564.225-1.104.627-1.503a2.152 2.152 0 0 1 3.031 0c.402.399.627.939.627 1.503Z" fill="#4679E6"/></symbol><symbol fill="none" viewBox="0 0 24 24" id="navbar-hamburger-menu" xmlns="http://www.w3.org/2000/svg"><path d="M2 4a1 1 0 0 1 1-1h18a1 1 0 1 1 0 2H3a1 1 0 0 1-1-1Zm1 9h18a1 1 0 0 0 0-2H3a1 1 0 0 0 0 2Zm0 8h18a1 1 0 0 0 0-2H3a1 1 0 0 0 0 2Z" fill="#fff"/></symbol><symbol fill="none" viewBox="0 0 77 20" id="nest-logo" xmlns="http://www.w3.org/2000/svg"><path fill-rule="evenodd" clip-rule="evenodd" d="M12.225 6.38 11.4 7.957v-.002l-.85-1.577c-.026-.05-.093-.113-.185 0a2.15 2.15 0 0 1-.827.572 2.216 2.216 0 0 1-1.97-.184 2.11 2.11 0 0 1-.699-.716 2.03 2.03 0 0 1 .558-2.68c.273-.203.592-.34.931-.398l-.074.01c-.572-.424-1.007-.457-1.127-.402-1.657.718-2.012 2.847-.064 4.938a.054.054 0 0 1-.002.066.059.059 0 0 1-.065.017C4.342 6.248 4.787 3.517 5.001 2.2c.05-.308.087-.538.07-.655-.069-.44-.33-.85-.51-1.133-.045-.07-.084-.131-.115-.184a.15.15 0 0 1 .004-.157A.163.163 0 0 1 4.596 0c.248.015.675.273 1.25.621 1.25.756 3.2 1.937 5.536 1.967 2.336-.03 4.287-1.211 5.537-1.967.575-.348 1.002-.606 1.249-.622a.163.163 0 0 1 .148.074.15.15 0 0 1-.001.16c-.03.051-.068.11-.11.178-.181.282-.445.696-.514 1.14-.018.115.02.344.07.651.213 1.313.659 4.047-2.024 5.4a.058.058 0 0 1-.065-.017.054.054 0 0 1-.002-.065c1.948-2.092 1.592-4.22-.064-4.939-.12-.052-.555-.022-1.127.401l-.03-.004c.337.064.653.204.922.41.27.206.484.47.626.773a2.023 2.023 0 0 1-.1 1.905c-.172.287-.413.53-.702.708a2.216 2.216 0 0 1-1.963.174 2.15 2.15 0 0 1-.824-.572l.007.007c-.093-.118-.165-.053-.19-.004Zm-2.75-2.462a1.607 1.607 0 0 0-1.871.25 1.472 1.472 0 0 0-.257 1.811c.158.272.4.49.692.624.291.134.618.178.937.124.318-.053.611-.2.84-.42.228-.222.38-.506.434-.814a1.47 1.47 0 0 0-.129-.906 1.534 1.534 0 0 0-.645-.669Zm5.902 2.058a1.472 1.472 0 0 0-.26-1.81 1.607 1.607 0 0 0-1.872-.246 1.534 1.534 0 0 0-.645.669 1.47 1.47 0 0 0-.128.907c.056.308.208.591.437.812.228.22.522.367.84.42.319.053.646.009.937-.126.292-.135.533-.353.69-.626Zm-8.25 13.13c.654.281 1.334.498 2.032.648a19.47 19.47 0 0 1 1.406-3.573 20.208 20.208 0 0 1 4.609-5.905h-3.01a22.106 22.106 0 0 0-3.875 5.727l-.037.083c-.45.979-.826 1.989-1.125 3.02Zm.064-4.394c.403-.796.851-1.57 1.344-2.317h-.004a3.937 3.937 0 0 1-1.509-2.119H4.2c.147.902.49 1.763 1.006 2.527a6.599 6.599 0 0 0 1.986 1.909Zm2.156-3.477.003.002h-.005l.002-.002Zm.76-.959c-.263.314-.517.633-.76.96a2.558 2.558 0 0 1-.791-.96h1.551Zm-7.498 0h-1.9c.121 1.635.637 3.219 1.505 4.625a10.64 10.64 0 0 0 3.497 3.473c.235-.768.51-1.525.825-2.266a8.144 8.144 0 0 1-2.654-2.48 7.831 7.831 0 0 1-1.273-3.352Zm9.36 6.58c-.513 1-.93 2.044-1.248 3.118a11.12 11.12 0 0 0 2.258-.072 16.325 16.325 0 0 1 3.353-5.668 16.95 16.95 0 0 1 5.369-3.958h-4.073a18.78 18.78 0 0 0-5.659 6.58Zm10.085-5.054c-3.295 1.64-5.87 4.373-7.255 7.699a10.9 10.9 0 0 0 4.684-2.917 10.389 10.389 0 0 0 2.571-4.782Zm28.242 2.958c.743.206 1.51.308 2.301.308.915 0 1.691-.135 2.33-.406.638-.27 1.114-.635 1.429-1.092.324-.466.486-.98.486-1.54 0-.653-.177-1.171-.53-1.554a3.048 3.048 0 0 0-1.242-.84 16.559 16.559 0 0 0-1.873-.532c-.733-.159-1.281-.317-1.643-.476-.353-.168-.53-.42-.53-.756s.153-.607.458-.812c.315-.205.796-.308 1.444-.308.924 0 1.848.257 2.772.77l.715-1.722a5.595 5.595 0 0 0-1.6-.644 7.842 7.842 0 0 0-1.873-.224c-.915 0-1.691.135-2.33.406-.628.27-1.1.64-1.414 1.106-.315.457-.472.97-.472 1.54 0 .653.171 1.176.514 1.568.353.392.772.677 1.258.854.486.178 1.11.355 1.872.532.496.112.886.215 1.172.308.296.093.534.22.715.378.19.15.286.34.286.574 0 .317-.157.574-.472.77-.314.187-.8.28-1.458.28-.59 0-1.181-.093-1.772-.28a5.377 5.377 0 0 1-1.53-.742l-.785 1.708c.448.336 1.038.612 1.772.826ZM37.355 5.1v9.8h-1.901l-4.988-5.95v5.95h-2.287V5.1h1.915l4.974 5.95V5.1h2.287Zm10.113 7.98v1.82H39.72V5.1h7.56v1.82h-5.258v2.128h4.644v1.764h-4.645v2.268h5.446Zm12.888-6.132h-3.2V5.1h8.717v1.848h-3.201V14.9h-2.316V6.948ZM71.4 5h-3.36v.829h1.199V9h.953V5.829h1.208V5Zm3.904 1.716L75.313 9h.893l-.017-4h-.774l-1.378 2.41L72.624 5h-.783v4h.893V6.773l1.072 1.813h.426l1.072-1.87Z" fill="#fff"/></symbol><symbol fill="none" viewBox="0 0 24 24" id="share-arrow-right" xmlns="http://www.w3.org/2000/svg"><path d="M16.95 7.05v5.657m0-5.657h-5.657m5.657 0-9.9 9.9" stroke="#4679E6" stroke-width="1.5" stroke-linecap="round" stroke-linejoin="round"/></symbol><symbol fill="none" viewBox="0 0 18 18" id="testimonail-left-blue-icon" xmlns="http://www.w3.org/2000/svg"><path d="M7.72 4.71a.75.75 0 0 1 1.06 1.061l-2.47 2.47h7.94a.75.75 0 1 1 0 1.5H6.31l2.47 2.47a.75.75 0 0 1-1.06 1.06l-3.75-3.75a.75.75 0 0 1 0-1.06l3.75-3.75Z" fill="#fff"/></symbol><symbol fill="none" viewBox="0 0 20 17" id="twitter-generate" xmlns="http://www.w3.org/2000/svg"><path d="M19.703 2.615a7.773 7.773 0 0 1-2.23.61 3.892 3.892 0 0 0 1.707-2.148 7.75 7.75 0 0 1-2.465.942A3.884 3.884 0 0 0 10.1 5.56a11.024 11.024 0 0 1-8.002-4.056A3.883 3.883 0 0 0 3.3 6.687a3.872 3.872 0 0 1-1.758-.486v.05a3.883 3.883 0 0 0 3.114 3.807 3.91 3.91 0 0 1-1.753.067 3.884 3.884 0 0 0 3.626 2.695 7.79 7.79 0 0 1-4.821 1.662c-.31 0-.62-.018-.927-.054a10.979 10.979 0 0 0 5.95 1.744c7.142 0 11.046-5.915 11.046-11.045 0-.167-.004-.335-.012-.502a7.892 7.892 0 0 0 1.936-2.008l.002-.002Z" fill="#4679E6"/></symbol><symbol fill="none" viewBox="0 0 18 18" id="white-chevron-down" xmlns="http://www.w3.org/2000/svg"><path d="M4.5 7.5 9 12l4.5-4.5" stroke="#fff" stroke-width="2" stroke-linecap="round" stroke-linejoin="round"/></symbol><symbol fill="none" viewBox="0 0 18 18" id="white-phone-outline-icon" xmlns="http://www.w3.org/2000/svg"><g clip-path="url(#la)"><path d="M.958 6.644c.996 3.96 6.44 9.406 10.399 10.398a6.708 6.708 0 0 0 1.635.206c1.047 0 2.079-.258 3.004-.75a2.333 2.333 0 0 0 .573-3.714l-1.564-1.564a2.333 2.333 0 0 0-2.584-.488c-.41.177-.784.428-1.103.74-.133.133-.38.154-.732.058a7.487 7.487 0 0 1-4.117-4.115c-.094-.354-.075-.6.059-.733.313-.32.564-.694.741-1.105a2.334 2.334 0 0 0-.488-2.581L5.216 1.432A2.299 2.299 0 0 0 3.225.776 2.325 2.325 0 0 0 1.5 2.004a6.435 6.435 0 0 0-.542 4.64ZM2.83 2.7a.836.836 0 0 1 1.326-.208l1.563 1.564a.825.825 0 0 1 .18.91 2.175 2.175 0 0 1-.432.659A2.113 2.113 0 0 0 5.025 7.8c.541 2.025 3.154 4.634 5.175 5.175a2.116 2.116 0 0 0 2.18-.45 2.18 2.18 0 0 1 .656-.432.825.825 0 0 1 .91.18l1.564 1.563a.817.817 0 0 1 .232.707.836.836 0 0 1-.443.619 4.888 4.888 0 0 1-3.574.417c-3.408-.848-8.455-5.895-9.313-9.301A4.897 4.897 0 0 1 2.83 2.7Z" fill="#fff"/></g><defs><clipPath id="la"><path fill="#fff" d="M0 0h18v18H0z"/></clipPath></defs></symbol><symbol fill="none" viewBox="0 0 32 32" id="white-plus-icon" xmlns="http://www.w3.org/2000/svg"><path d="M8.039 15.996h15.97m-7.985 7.985V8.011" stroke="#fff" stroke-width="2" stroke-linecap="round" stroke-linejoin="round"/></symbol><symbol fill="none" viewBox="0 0 20 15" id="youtube-generate" xmlns="http://www.w3.org/2000/svg"><path d="M19.583 2.923a2.322 2.322 0 0 0-.638-1.058 2.541 2.541 0 0 0-1.115-.619C16.265.834 9.995.834 9.995.834a63.853 63.853 0 0 0-7.825.391 2.633 2.633 0 0 0-1.115.634 2.414 2.414 0 0 0-.648 1.063A24.242 24.242 0 0 0 0 7.5c-.01 1.535.126 3.067.407 4.579.114.399.336.763.646 1.057.309.294.694.507 1.117.62 1.586.411 7.825.411 7.825.411 2.617.03 5.234-.101 7.835-.392.418-.108.802-.32 1.115-.618.304-.289.525-.654.637-1.058.288-1.51.428-3.043.418-4.58a22.147 22.147 0 0 0-.417-4.597Zm-11.581 7.43V4.649L13.218 7.5l-5.216 2.853Z" fill="#4679E6"/></symbol></svg>