<?xml version="1.0" encoding="utf-8"?><svg xmlns="http://www.w3.org/2000/svg" xmlns:xlink="http://www.w3.org/1999/xlink"><symbol fill="none" viewBox="0 0 24 24" id="navbar-hamburger-menu" xmlns="http://www.w3.org/2000/svg"><path d="M2 4a1 1 0 0 1 1-1h18a1 1 0 1 1 0 2H3a1 1 0 0 1-1-1Zm1 9h18a1 1 0 0 0 0-2H3a1 1 0 0 0 0 2Zm0 8h18a1 1 0 0 0 0-2H3a1 1 0 0 0 0 2Z" fill="#fff"/></symbol><symbol fill="none" viewBox="0 0 18 18" id="white-chevron-down" xmlns="http://www.w3.org/2000/svg"><path d="M4.5 7.5 9 12l4.5-4.5" stroke="#fff" stroke-width="2" stroke-linecap="round" stroke-linejoin="round"/></symbol><symbol fill="none" viewBox="0 0 18 18" id="white-phone-outline-icon" xmlns="http://www.w3.org/2000/svg"><g clip-path="url(#ca)"><path d="M.958 6.644c.996 3.96 6.44 9.406 10.399 10.398a6.708 6.708 0 0 0 1.635.206c1.047 0 2.079-.258 3.004-.75a2.333 2.333 0 0 0 .573-3.714l-1.564-1.564a2.333 2.333 0 0 0-2.584-.488c-.41.177-.784.428-1.103.74-.133.133-.38.154-.732.058a7.487 7.487 0 0 1-4.117-4.115c-.094-.354-.075-.6.059-.733.313-.32.564-.694.741-1.105a2.334 2.334 0 0 0-.488-2.581L5.216 1.432A2.299 2.299 0 0 0 3.225.776 2.325 2.325 0 0 0 1.5 2.004a6.435 6.435 0 0 0-.542 4.64ZM2.83 2.7a.836.836 0 0 1 1.326-.208l1.563 1.564a.825.825 0 0 1 .18.91 2.175 2.175 0 0 1-.432.659A2.113 2.113 0 0 0 5.025 7.8c.541 2.025 3.154 4.634 5.175 5.175a2.116 2.116 0 0 0 2.18-.45 2.18 2.18 0 0 1 .656-.432.825.825 0 0 1 .91.18l1.564 1.563a.817.817 0 0 1 .232.707.836.836 0 0 1-.443.619 4.888 4.888 0 0 1-3.574.417c-3.408-.848-8.455-5.895-9.313-9.301A4.897 4.897 0 0 1 2.83 2.7Z" fill="#fff"/></g><defs><clipPath id="ca"><path fill="#fff" d="M0 0h18v18H0z"/></clipPath></defs></symbol></svg>