<svg width="24" height="24" viewBox="0 0 24 24" fill="none" xmlns="http://www.w3.org/2000/svg">
<path d="M4 10L4 4L10 4L10 10L4 10Z" fill="#4679E6" stroke="#4679E6" stroke-width="2"/>
<path d="M20.1768 10.1768C20.1299 10.2237 20.0663 10.25 20 10.25L13.75 10.25L13.75 3.75L20 3.75C20.0663 3.75 20.1299 3.77634 20.1768 3.82322C20.2237 3.87011 20.25 3.9337 20.25 4L20.25 10C20.25 10.0663 20.2237 10.1299 20.1768 10.1768Z" stroke="#4679E6" stroke-width="1.5"/>
<path d="M3 14V20C3 20.2652 3.10536 20.5196 3.29289 20.7071C3.48043 20.8946 3.73478 21 4 21H11V13H4C3.73478 13 3.48043 13.1054 3.29289 13.2929C3.10536 13.4804 3 13.7348 3 14Z" fill="#4679E6"/>
<path d="M20 13H13V21H20C20.2652 21 20.5196 20.8946 20.7071 20.7071C20.8946 20.5196 21 20.2652 21 20V14C21 13.7348 20.8946 13.4804 20.7071 13.2929C20.5196 13.1054 20.2652 13 20 13Z" fill="#4679E6"/>
</svg>
