<svg width="18" height="20" viewBox="0 0 18 20" fill="none" xmlns="http://www.w3.org/2000/svg">
<path fill-rule="evenodd" clip-rule="evenodd" d="M11.5755 2.50001V1.66668C11.5755 1.20644 11.9486 0.833344 12.4089 0.833344C12.8691 0.833344 13.2422 1.20644 13.2422 1.66668V2.50001H14.9089C16.2896 2.50001 17.4089 3.6193 17.4089 5.00001V8.33334V16.6667C17.4089 18.0474 16.2896 19.1667 14.9089 19.1667H3.24219C1.86148 19.1667 0.742188 18.0474 0.742188 16.6667V8.33334V5.00001C0.742188 3.6193 1.86148 2.50001 3.24219 2.50001H4.90885V1.66668C4.90885 1.20644 5.28195 0.833344 5.74219 0.833344C6.20242 0.833344 6.57552 1.20644 6.57552 1.66668V2.50001H11.5755ZM2.40885 9.16668V16.6667C2.40885 17.1269 2.78195 17.5 3.24219 17.5H14.9089C15.3691 17.5 15.7422 17.1269 15.7422 16.6667V9.16668H2.40885ZM15.7422 7.50001H2.40885V5.00001C2.40885 4.53977 2.78195 4.16668 3.24219 4.16668H4.90885V5.00001C4.90885 5.46025 5.28195 5.83334 5.74219 5.83334C6.20242 5.83334 6.57552 5.46025 6.57552 5.00001V4.16668H11.5755V5.00001C11.5755 5.46025 11.9486 5.83334 12.4089 5.83334C12.8691 5.83334 13.2422 5.46025 13.2422 5.00001V4.16668H14.9089C15.3691 4.16668 15.7422 4.53977 15.7422 5.00001V7.50001Z" fill="#999999"/>
</svg>
