<svg width="12" height="12" viewBox="0 0 12 12" fill="none" xmlns="http://www.w3.org/2000/svg">
<path fill-rule="evenodd" clip-rule="evenodd" d="M7.17916 5.99999L11.5899 10.4107C11.9153 10.7362 11.9153 11.2638 11.5899 11.5892C11.2645 11.9147 10.7368 11.9147 10.4114 11.5892L6.00065 7.1785L1.58991 11.5892C1.26447 11.9147 0.736831 11.9147 0.411394 11.5892C0.0859575 11.2638 0.0859575 10.7362 0.411394 10.4107L4.82214 5.99999L0.411394 1.58925C0.0859575 1.26381 0.0859575 0.736171 0.411394 0.410734C0.736831 0.0852973 1.26447 0.0852973 1.58991 0.410734L6.00065 4.82148L10.4114 0.410734C10.7368 0.0852973 11.2645 0.0852973 11.5899 0.410734C11.9153 0.736171 11.9153 1.26381 11.5899 1.58925L7.17916 5.99999Z" fill="#333333"/>
</svg>
