<svg width="22" height="21" viewBox="0 0 22 21" fill="none" xmlns="http://www.w3.org/2000/svg">
<path d="M11 0.500014C9.46921 0.499017 7.95864 0.849463 6.58467 1.52435C5.2107 2.19924 4.01001 3.18054 3.07512 4.39266C2.14022 5.60478 1.49608 7.01535 1.19232 8.51569C0.888569 10.016 0.93331 11.5661 1.3231 13.0464C1.71289 14.5267 2.43732 15.8978 3.44058 17.0539C4.44383 18.2101 5.69913 19.1205 7.10973 19.715C8.52034 20.3095 10.0486 20.5723 11.5768 20.483C13.1049 20.3937 14.5922 19.9548 15.924 19.2L19.684 20.453C19.7862 20.4853 19.8928 20.5011 20 20.5C20.1584 20.4999 20.3144 20.4622 20.4554 20.3899C20.5963 20.3177 20.7181 20.213 20.8106 20.0845C20.9032 19.956 20.9639 19.8074 20.9878 19.6508C21.0117 19.4943 20.998 19.3343 20.948 19.184L19.7 15.424C20.5643 13.9035 21.0143 12.1827 21.0048 10.4337C20.9952 8.68465 20.5266 6.9688 19.6458 5.45778C18.7649 3.94676 17.5027 2.69353 15.9854 1.82348C14.4682 0.953425 12.749 0.497052 11 0.500014V0.500014ZM17.653 15.621L18.419 17.921L16.119 17.155C15.9787 17.1072 15.8294 17.0913 15.6822 17.1086C15.5349 17.1259 15.3934 17.1759 15.268 17.255C13.6001 18.3105 11.6016 18.714 9.65492 18.3881C7.70822 18.0622 5.95007 17.0299 4.71693 15.4887C3.48379 13.9475 2.86229 12.0057 2.97137 10.0349C3.08044 8.06417 3.91243 6.20283 5.30812 4.80715C6.7038 3.41147 8.56514 2.57947 10.5359 2.4704C12.5067 2.36132 14.4485 2.98283 15.9896 4.21596C17.5308 5.4491 18.5631 7.20725 18.889 9.15396C19.2149 11.1007 18.8115 13.0992 17.756 14.767C17.6764 14.8927 17.6258 15.0346 17.608 15.1824C17.5901 15.3301 17.6055 15.48 17.653 15.621V15.621ZM16 8.00001C16 8.26523 15.8946 8.51958 15.7071 8.70712C15.5196 8.89466 15.2652 9.00001 15 9.00001H6.99998C6.73477 9.00001 6.48041 8.89466 6.29288 8.70712C6.10534 8.51958 5.99998 8.26523 5.99998 8.00001C5.99998 7.7348 6.10534 7.48044 6.29288 7.29291C6.48041 7.10537 6.73477 7.00001 6.99998 7.00001H15C15.2652 7.00001 15.5196 7.10537 15.7071 7.29291C15.8946 7.48044 16 7.7348 16 8.00001ZM12 13C12 13.2652 11.8946 13.5196 11.7071 13.7071C11.5196 13.8947 11.2652 14 11 14H6.99998C6.73477 14 6.48041 13.8947 6.29288 13.7071C6.10534 13.5196 5.99998 13.2652 5.99998 13C5.99998 12.7348 6.10534 12.4804 6.29288 12.2929C6.48041 12.1054 6.73477 12 6.99998 12H11C11.2652 12 11.5196 12.1054 11.7071 12.2929C11.8946 12.4804 12 12.7348 12 13Z" fill="#4679E6"/>
</svg>
