<svg width="21" height="20" viewBox="0 0 21 20" fill="none" xmlns="http://www.w3.org/2000/svg">
<path d="M19.0625 2.5H2.39583C2.17482 2.5 1.96286 2.5878 1.80658 2.74408C1.6503 2.90036 1.5625 3.11232 1.5625 3.33333V16.6667C1.5625 16.8877 1.6503 17.0996 1.80658 17.2559C1.96286 17.4122 2.17482 17.5 2.39583 17.5H19.0625C19.2835 17.5 19.4955 17.4122 19.6518 17.2559C19.808 17.0996 19.8958 16.8877 19.8958 16.6667V3.33333C19.8958 3.11232 19.808 2.90036 19.6518 2.74408C19.4955 2.5878 19.2835 2.5 19.0625 2.5ZM18.2292 15.8333H3.22917V7.8975L10.4192 10.7742C10.6183 10.8531 10.84 10.8531 11.0392 10.7742L18.2292 7.8975V15.8333ZM18.2292 6.1025L10.7292 9.1025L3.22917 6.1025V4.16667H18.2292V6.1025Z" fill="white"/>
</svg>
