<svg width="23" height="21" viewBox="0 0 23 21" fill="none" xmlns="http://www.w3.org/2000/svg">
<path d="M20.3333 12.859V11C20.3333 10.7348 20.2279 10.4804 20.0404 10.2929C19.8528 10.1054 19.5985 10 19.3333 10C19.0681 10 18.8137 10.1054 18.6262 10.2929C18.4386 10.4804 18.3333 10.7348 18.3333 11V12H4.33328V3H11.3333C11.5985 3 11.8528 2.89464 12.0404 2.70711C12.2279 2.51957 12.3333 2.26522 12.3333 2C12.3333 1.73478 12.2279 1.48043 12.0404 1.29289C11.8528 1.10536 11.5985 1 11.3333 1H4.33328C3.80285 1 3.29414 1.21071 2.91906 1.58579C2.54399 1.96086 2.33328 2.46957 2.33328 3V12.859L0.371278 19.726C0.328879 19.8748 0.321595 20.0314 0.349999 20.1836C0.378403 20.3357 0.441719 20.4791 0.534966 20.6026C0.628213 20.7261 0.748847 20.8263 0.887373 20.8952C1.0259 20.9642 1.17854 21 1.33328 21H21.3333C21.488 21 21.6407 20.9642 21.7792 20.8952C21.9177 20.8263 22.0383 20.7261 22.1316 20.6026C22.2248 20.4791 22.2882 20.3357 22.3166 20.1836C22.345 20.0314 22.3377 19.8748 22.2953 19.726L20.3333 12.859ZM2.65928 19L4.08728 14H18.5793L20.0073 19H2.65928ZM21.9333 3.2H21.3053C21.2222 3.19822 21.1415 3.17153 21.0738 3.12339C21.006 3.07526 20.9543 3.00788 20.9253 2.93V2.925C20.8914 2.8494 20.8809 2.76537 20.8951 2.68375C20.9094 2.60212 20.9477 2.52663 21.0053 2.467L21.4493 2.023C21.4872 1.98576 21.5174 1.94134 21.5379 1.89232C21.5585 1.8433 21.5691 1.79066 21.5691 1.7375C21.5691 1.68434 21.5585 1.6317 21.5379 1.58268C21.5174 1.53366 21.4872 1.48924 21.4493 1.452L20.8883 0.891C20.851 0.853054 20.8066 0.822912 20.7576 0.802335C20.7086 0.781758 20.6559 0.77116 20.6028 0.77116C20.5496 0.77116 20.497 0.781758 20.448 0.802335C20.3989 0.822912 20.3545 0.853054 20.3173 0.891L19.8733 1.335C19.8137 1.39261 19.7381 1.43095 19.6564 1.44504C19.5748 1.45913 19.4907 1.44831 19.4153 1.414H19.4093C19.3317 1.3847 19.2646 1.33287 19.2166 1.26516C19.1687 1.19744 19.1421 1.11694 19.1403 1.034V0.4C19.1403 0.293913 19.0981 0.192172 19.0231 0.117157C18.9481 0.0421428 18.8464 0 18.7403 0H17.9333C17.8272 0 17.7255 0.0421428 17.6504 0.117157C17.5754 0.192172 17.5333 0.293913 17.5333 0.4V1.028C17.5314 1.11094 17.5049 1.19144 17.4569 1.25916C17.409 1.32687 17.3419 1.3787 17.2643 1.408H17.2583C17.1828 1.44231 17.0988 1.45313 17.0171 1.43904C16.9354 1.42495 16.8599 1.38661 16.8003 1.329L16.3563 0.885C16.319 0.847054 16.2746 0.816912 16.2256 0.796335C16.1766 0.775758 16.1239 0.76516 16.0708 0.76516C16.0176 0.76516 15.965 0.775758 15.916 0.796335C15.8669 0.816912 15.8225 0.847054 15.7853 0.885L15.2243 1.446C15.1863 1.48324 15.1562 1.52766 15.1356 1.57668C15.115 1.62571 15.1044 1.67834 15.1044 1.7315C15.1044 1.78466 15.115 1.8373 15.1356 1.88632C15.1562 1.93534 15.1863 1.97976 15.2243 2.017L15.6683 2.461C15.7258 2.52063 15.7642 2.59612 15.7784 2.67775C15.7927 2.75937 15.7822 2.8434 15.7483 2.919V2.924C15.7193 3.00188 15.6675 3.06926 15.5998 3.11739C15.532 3.16553 15.4514 3.19222 15.3683 3.194H14.7333C14.6272 3.194 14.5254 3.23614 14.4504 3.31116C14.3754 3.38617 14.3333 3.48791 14.3333 3.594V4.4C14.3333 4.50609 14.3754 4.60783 14.4504 4.68284C14.5254 4.75786 14.6272 4.8 14.7333 4.8H15.3613C15.4442 4.80184 15.5247 4.82843 15.5924 4.87636C15.6601 4.9243 15.712 4.99138 15.7413 5.069V5.075C15.7752 5.1506 15.7857 5.23463 15.7714 5.31625C15.7572 5.39788 15.7188 5.47337 15.6613 5.533L15.2173 5.977C15.1793 6.01424 15.1492 6.05866 15.1286 6.10768C15.108 6.1567 15.0974 6.20934 15.0974 6.2625C15.0974 6.31566 15.108 6.3683 15.1286 6.41732C15.1492 6.46634 15.1793 6.51076 15.2173 6.548L15.7783 7.109C15.8155 7.14695 15.8599 7.17709 15.909 7.19767C15.958 7.21824 16.0106 7.22884 16.0638 7.22884C16.1169 7.22884 16.1696 7.21824 16.2186 7.19767C16.2676 7.17709 16.312 7.14695 16.3493 7.109L16.7933 6.665C16.8529 6.60747 16.9284 6.5691 17.01 6.55484C17.0916 6.54058 17.1757 6.55109 17.2513 6.585H17.2573C17.3351 6.61406 17.4023 6.66584 17.4503 6.7336C17.4982 6.80137 17.5247 6.88199 17.5263 6.965V7.6C17.5263 7.70609 17.5684 7.80783 17.6434 7.88284C17.7185 7.95786 17.8202 8 17.9263 8H18.7333C18.8394 8 18.9411 7.95786 19.0161 7.88284C19.0911 7.80783 19.1333 7.70609 19.1333 7.6V6.968C19.1348 6.88499 19.1613 6.80437 19.2093 6.7366C19.2573 6.66884 19.3245 6.61706 19.4023 6.588H19.4083C19.4839 6.55409 19.5679 6.54358 19.6495 6.55784C19.7312 6.5721 19.8066 6.61047 19.8663 6.668L20.3103 7.112C20.3475 7.14995 20.3919 7.18009 20.441 7.20067C20.49 7.22124 20.5426 7.23184 20.5958 7.23184C20.6489 7.23184 20.7016 7.22124 20.7506 7.20067C20.7996 7.18009 20.844 7.14995 20.8813 7.112L21.4423 6.551C21.4802 6.51376 21.5104 6.46934 21.5309 6.42032C21.5515 6.37129 21.5621 6.31866 21.5621 6.2655C21.5621 6.21234 21.5515 6.1597 21.5309 6.11068C21.5104 6.06166 21.4802 6.01724 21.4423 5.98L20.9983 5.536C20.9407 5.47637 20.9024 5.40088 20.8881 5.31925C20.8739 5.23763 20.8844 5.1536 20.9183 5.078V5.072C20.9476 4.99438 20.9994 4.9273 21.0671 4.87936C21.1348 4.83143 21.2153 4.80483 21.2983 4.803H21.9333C21.9858 4.803 22.0378 4.79265 22.0864 4.77255C22.1349 4.75245 22.179 4.72299 22.2161 4.68584C22.2533 4.6487 22.2827 4.6046 22.3028 4.55607C22.3229 4.50754 22.3333 4.45553 22.3333 4.403V3.6C22.3333 3.49391 22.2911 3.39217 22.2161 3.31716C22.1411 3.24214 22.0394 3.2 21.9333 3.2ZM18.3333 5.2C18.0959 5.2 17.8639 5.12962 17.6666 4.99776C17.4693 4.86591 17.3154 4.67849 17.2246 4.45922C17.1338 4.23995 17.11 3.99867 17.1563 3.76589C17.2026 3.53311 17.3169 3.3193 17.4848 3.15147C17.6526 2.98365 17.8664 2.86936 18.0992 2.82306C18.3319 2.77676 18.5732 2.80052 18.7925 2.89134C19.0118 2.98217 19.1992 3.13598 19.331 3.33332C19.4629 3.53065 19.5333 3.76266 19.5333 4C19.5333 4.31826 19.4069 4.62348 19.1818 4.84853C18.9568 5.07357 18.6515 5.2 18.3333 5.2Z" fill="#4679E6"/>
</svg>
