<svg width="23" height="23" viewBox="0 0 23 23" fill="none" xmlns="http://www.w3.org/2000/svg">
<path d="M22.6176 10.759C22.6055 10.6941 22.5864 10.6308 22.5606 10.57C22.5536 10.556 22.5546 10.54 22.5476 10.526L19.0476 4.026C19.0085 3.95781 18.9608 3.89496 18.9056 3.839C18.8135 3.73335 18.7 3.64849 18.5726 3.59005C18.4452 3.5316 18.3068 3.50091 18.1666 3.5H12.6666V1.5C12.6666 1.23478 12.5613 0.98043 12.3737 0.792893C12.1862 0.605357 11.9318 0.5 11.6666 0.5C11.4014 0.5 11.1471 0.605357 10.9595 0.792893C10.772 0.98043 10.6666 1.23478 10.6666 1.5V3.5H5.16663C5.02646 3.50091 4.88808 3.5316 4.76068 3.59005C4.63327 3.64849 4.51975 3.73335 4.42763 3.839C4.37244 3.89496 4.32471 3.95781 4.28563 4.026L0.785626 10.526C0.778626 10.54 0.779626 10.556 0.772626 10.57C0.746898 10.6304 0.727786 10.6935 0.715626 10.758C0.695373 10.8231 0.681967 10.8901 0.675626 10.958C0.675626 10.973 0.666626 10.986 0.666626 11.002C0.666626 12.1955 1.14073 13.3401 1.98465 14.184C2.82856 15.0279 3.97315 15.502 5.16663 15.502C6.3601 15.502 7.50469 15.0279 8.34861 14.184C9.19252 13.3401 9.66663 12.1955 9.66663 11.002C9.66663 10.986 9.65863 10.973 9.65763 10.958C9.65136 10.8901 9.63795 10.8231 9.61763 10.758C9.60547 10.6931 9.58636 10.6298 9.56063 10.569C9.55363 10.555 9.55463 10.539 9.54763 10.525L6.84063 5.5H10.6666V17.5H7.66663C7.40141 17.5 7.14706 17.6054 6.95952 17.7929C6.77198 17.9804 6.66663 18.2348 6.66663 18.5C6.66663 18.7652 6.77198 19.0196 6.95952 19.2071C7.14706 19.3946 7.40141 19.5 7.66663 19.5H15.6666C15.9318 19.5 16.1862 19.3946 16.3737 19.2071C16.5613 19.0196 16.6666 18.7652 16.6666 18.5C16.6666 18.2348 16.5613 17.9804 16.3737 17.7929C16.1862 17.6054 15.9318 17.5 15.6666 17.5H12.6666V5.5H16.4926L13.7856 10.526C13.7786 10.54 13.7796 10.556 13.7726 10.57C13.7469 10.6304 13.7278 10.6935 13.7156 10.758C13.6954 10.8231 13.682 10.8901 13.6756 10.958C13.6756 10.973 13.6666 10.986 13.6666 11.002C13.6666 12.1955 14.1407 13.3401 14.9846 14.184C15.8286 15.0279 16.9732 15.502 18.1666 15.502C19.3601 15.502 20.5047 15.0279 21.3486 14.184C22.1925 13.3401 22.6666 12.1955 22.6666 11.002C22.6666 10.986 22.6586 10.973 22.6576 10.958C22.6513 10.8905 22.6379 10.8238 22.6176 10.759ZM5.16663 13.5C4.68023 13.4999 4.20442 13.358 3.79749 13.0916C3.39056 12.8251 3.07018 12.4458 2.87563 12H7.45763C7.26307 12.4458 6.9427 12.8251 6.53577 13.0916C6.12883 13.358 5.65302 13.4999 5.16663 13.5ZM6.99263 10H3.34063L5.16663 6.609L6.99263 10ZM18.1666 6.609L19.9926 10H16.3406L18.1666 6.609ZM18.1666 13.5C17.6802 13.4999 17.2044 13.358 16.7975 13.0916C16.3906 12.8251 16.0702 12.4458 15.8756 12H20.4576C20.2631 12.4458 19.9427 12.8251 19.5358 13.0916C19.1288 13.358 18.653 13.4999 18.1666 13.5ZM20.6666 21.5C20.6666 21.7652 20.5613 22.0196 20.3737 22.2071C20.1862 22.3946 19.9318 22.5 19.6666 22.5H3.66663C3.40141 22.5 3.14706 22.3946 2.95952 22.2071C2.77198 22.0196 2.66663 21.7652 2.66663 21.5C2.66663 21.2348 2.77198 20.9804 2.95952 20.7929C3.14706 20.6054 3.40141 20.5 3.66663 20.5H19.6666C19.9318 20.5 20.1862 20.6054 20.3737 20.7929C20.5613 20.9804 20.6666 21.2348 20.6666 21.5Z" fill="#4679E6"/>
</svg>
