<svg width="20" height="20" viewBox="0 0 20 20" fill="none" xmlns="http://www.w3.org/2000/svg">
<path fill-rule="evenodd" clip-rule="evenodd" d="M7.85783 7.47417H10.9528V9.01584C11.3987 8.12917 12.542 7.33251 14.2595 7.33251C17.552 7.33251 18.3337 9.09751 18.3337 12.3358V18.3333H15.0003V13.0733C15.0003 11.2292 14.5545 10.1892 13.4195 10.1892C11.8453 10.1892 11.1912 11.31 11.1912 13.0725V18.3333H7.85783V7.47417ZM2.14199 18.1917H5.47533V7.33251H2.14199V18.1917ZM5.95283 3.79167C5.95295 4.07107 5.89754 4.3477 5.78981 4.60549C5.68209 4.86329 5.5242 5.0971 5.32533 5.29334C4.92233 5.69386 4.37683 5.91805 3.80866 5.91667C3.24148 5.91629 2.69725 5.69267 2.29366 5.29417C2.0955 5.09727 1.93815 4.86319 1.83061 4.60536C1.72308 4.34754 1.66747 4.07103 1.66699 3.79167C1.66699 3.22751 1.89199 2.68751 2.29449 2.28917C2.69773 1.89014 3.24219 1.66642 3.80949 1.66667C4.37783 1.66667 4.92283 1.89084 5.32533 2.28917C5.72699 2.68751 5.95283 3.22751 5.95283 3.79167Z" fill="#4679E6"/>
</svg>
