<svg width="18" height="17" viewBox="0 0 18 17" fill="none" xmlns="http://www.w3.org/2000/svg">
<path fill-rule="evenodd" clip-rule="evenodd" d="M6.85746 5.97449H9.95246V7.51616C10.3983 6.62949 11.5416 5.83283 13.2591 5.83283C16.5516 5.83283 17.3333 7.59783 17.3333 10.8362V16.8337H14V11.5737C14 9.72949 13.5541 8.68949 12.4191 8.68949C10.845 8.68949 10.1908 9.81033 10.1908 11.5728V16.8337H6.85746V5.97449ZM1.14163 16.692H4.47496V5.83283H1.14163V16.692ZM4.95246 2.29199C4.95258 2.57139 4.89717 2.84802 4.78945 3.10581C4.68172 3.36361 4.52384 3.59742 4.32496 3.79366C3.92196 4.19418 3.37647 4.41837 2.80829 4.41699C2.24112 4.41661 1.69689 4.19299 1.29329 3.79449C1.09514 3.59759 0.937781 3.36351 0.830246 3.10569C0.722711 2.84786 0.667109 2.57135 0.666626 2.29199C0.666626 1.72783 0.891626 1.18783 1.29413 0.789492C1.69736 0.390458 2.24183 0.166743 2.80913 0.166992C3.37746 0.166992 3.92246 0.391159 4.32496 0.789492C4.72663 1.18783 4.95246 1.72783 4.95246 2.29199Z" fill="#4679E6"/>
</svg>
