<svg width="22" height="23" viewBox="0 0 22 23" fill="none" xmlns="http://www.w3.org/2000/svg">
<path d="M13 8.16699C13 8.56255 12.8827 8.94923 12.6629 9.27813C12.4432 9.60703 12.1308 9.86337 11.7654 10.0147C11.3999 10.1661 10.9978 10.2057 10.6098 10.1286C10.2219 10.0514 9.8655 9.86091 9.58579 9.5812C9.30609 9.3015 9.11561 8.94513 9.03843 8.55717C8.96126 8.16921 9.00087 7.76707 9.15225 7.40162C9.30362 7.03617 9.55997 6.72381 9.88887 6.50405C10.2178 6.28429 10.6044 6.16699 11 6.16699C11.5304 6.16699 12.0391 6.3777 12.4142 6.75277C12.7893 7.12785 13 7.63655 13 8.16699ZM21.756 15.846C21.8743 15.9829 21.9533 16.1494 21.9844 16.3277C22.0156 16.5059 21.9978 16.6893 21.9329 16.8582C21.868 17.0272 21.7585 17.1754 21.6161 17.287C21.4736 17.3986 21.3036 17.4694 21.124 17.492L17.452 17.952L16.992 21.624C16.9672 21.8217 16.884 22.0074 16.7529 22.1575C16.6219 22.3075 16.449 22.415 16.2565 22.4662C16.0639 22.5173 15.8605 22.5098 15.6723 22.4445C15.4841 22.3793 15.3196 22.2593 15.2 22.1L11 16.5L6.80001 22.1C6.68041 22.2593 6.51595 22.3793 6.32772 22.4445C6.13949 22.5098 5.93606 22.5173 5.74352 22.4662C5.55098 22.415 5.37811 22.3075 5.24706 22.1575C5.11602 22.0074 5.03277 21.8217 5.00801 21.624L4.54801 17.952L0.876005 17.492C0.696451 17.4694 0.526384 17.3986 0.383934 17.287C0.241483 17.1754 0.131988 17.0272 0.0671216 16.8582C0.00225497 16.6893 -0.0155523 16.5059 0.0155983 16.3277C0.0467489 16.1494 0.12569 15.9829 0.244005 15.846L4.07001 11.424C3.51692 10.2554 3.26832 8.96591 3.34734 7.67546C3.42636 6.385 3.83042 5.13548 4.52196 4.0431C5.2135 2.95072 6.17004 2.05095 7.30265 1.42747C8.43525 0.803992 9.70713 0.477051 11 0.477051C12.2929 0.477051 13.5648 0.803992 14.6974 1.42747C15.83 2.05095 16.7865 2.95072 17.4781 4.0431C18.1696 5.13548 18.5737 6.385 18.6527 7.67546C18.7317 8.96591 18.4831 10.2554 17.93 11.424L21.756 15.846ZM9.16901 15.608C9.14801 15.608 9.12801 15.593 9.10701 15.587C7.59908 15.199 6.24461 14.362 5.22301 13.187C5.21701 13.18 5.20901 13.175 5.20301 13.167L2.98001 15.74L5.56801 16.063C5.78891 16.0904 5.99434 16.1908 6.15175 16.3482C6.30916 16.5057 6.40954 16.7111 6.43701 16.932L6.68501 18.92L9.16901 15.608ZM16.669 8.16699C16.6692 7.0462 16.3371 5.95053 15.7146 5.01851C15.0921 4.08649 14.2072 3.35998 13.1718 2.93084C12.1365 2.50171 10.9971 2.38922 9.89778 2.60761C8.79848 2.826 7.78862 3.36545 6.99589 4.15775C6.20317 4.95006 5.66318 5.95963 5.44421 7.05882C5.22524 8.158 5.33712 9.29744 5.76571 10.333C6.1943 11.3686 6.92034 12.2539 7.85203 12.8769C8.78372 13.4999 9.87922 13.8326 11 13.833C12.5023 13.8314 13.9427 13.234 15.0051 12.1718C16.0675 11.1096 16.6652 9.66931 16.667 8.16699H16.669ZM19.02 15.74L16.8 13.171C15.7749 14.3529 14.4148 15.1955 12.9 15.587C12.879 15.593 12.859 15.603 12.838 15.608L15.322 18.92L15.57 16.932C15.5975 16.7111 15.6979 16.5057 15.8553 16.3482C16.0127 16.1908 16.2181 16.0904 16.439 16.063L19.02 15.74Z" fill="#4679E6"/>
</svg>
