<svg width="77" height="20" viewBox="0 0 77 20" fill="none" xmlns="http://www.w3.org/2000/svg">
<path fill-rule="evenodd" clip-rule="evenodd" d="M12.2246 6.37982L11.3995 7.95682L11.4001 7.95462L10.5494 6.37763C10.5236 6.32768 10.4567 6.26538 10.3646 6.37833L10.3656 6.37708C10.141 6.62941 9.857 6.82585 9.53756 6.9499C9.21811 7.07395 8.87255 7.12197 8.52994 7.08993C8.18732 7.05788 7.85767 6.94671 7.56869 6.76576C7.27972 6.58481 7.03987 6.33937 6.86932 6.05008C6.69877 5.76079 6.60251 5.43611 6.58862 5.10334C6.57473 4.77056 6.64363 4.43943 6.78952 4.13777C6.93541 3.83612 7.15402 3.57277 7.42697 3.36987C7.69993 3.16696 8.01925 3.03044 8.35808 2.97177L8.28379 2.9811C7.71157 2.55804 7.27717 2.52512 7.15694 2.57999C5.50041 3.29771 5.14483 5.42671 7.09285 7.5184C7.0998 7.52808 7.10335 7.53966 7.10296 7.55144C7.10257 7.56322 7.09827 7.57457 7.0907 7.5838C7.08313 7.59303 7.07269 7.59966 7.06093 7.60271C7.04916 7.60575 7.03669 7.60505 7.02537 7.6007C4.34297 6.24811 4.78754 3.5166 5.00167 2.20095C5.05179 1.89302 5.08928 1.66264 5.07111 1.54567C5.00327 1.10515 4.74207 0.695747 4.56159 0.412871C4.51727 0.343398 4.47781 0.281556 4.44729 0.22876C4.43317 0.204688 4.42606 0.177365 4.42672 0.149697C4.42738 0.122029 4.43578 0.095051 4.45102 0.071633C4.46626 0.0482151 4.48778 0.0292332 4.51329 0.0167068C4.5388 0.00418035 4.56733 -0.00142206 4.59587 0.000495568C4.84379 0.0157153 5.27077 0.274065 5.8461 0.622175C7.09608 1.37849 9.04632 2.55851 11.3819 2.58932C13.7181 2.5585 15.6693 1.37789 16.9192 0.621602C17.494 0.273781 17.9205 0.0157069 18.168 0.000495568C18.1972 -0.00178555 18.2265 0.00383875 18.2526 0.0167406C18.2787 0.0296425 18.3006 0.0493143 18.3159 0.0735599C18.3311 0.0978055 18.3391 0.125671 18.3389 0.154045C18.3387 0.18242 18.3304 0.210187 18.3148 0.234247C18.2852 0.285175 18.2471 0.344897 18.2042 0.412046C18.0239 0.694336 17.7597 1.10789 17.691 1.55116C17.673 1.66728 17.7103 1.89649 17.7603 2.20313C17.9742 3.51635 18.4195 6.2497 15.7373 7.6029C15.726 7.60724 15.7135 7.60795 15.7018 7.6049C15.69 7.60186 15.6796 7.59523 15.672 7.586C15.6644 7.57676 15.6601 7.56542 15.6597 7.55364C15.6593 7.54186 15.6629 7.53027 15.6698 7.52059C17.6179 5.42945 17.2623 3.30045 15.6058 2.58219C15.4855 2.53006 15.0511 2.56024 14.4789 2.98329L14.4494 2.97945C14.7861 3.04282 15.1022 3.18321 15.3714 3.38889C15.6405 3.59457 15.8549 3.85958 15.9967 4.16178C16.1384 4.46399 16.2033 4.79461 16.1861 5.12605C16.1688 5.45749 16.0698 5.78012 15.8974 6.067C15.725 6.35389 15.4842 6.5967 15.195 6.77515C14.9058 6.95361 14.5767 7.06253 14.2351 7.09283C13.8936 7.12312 13.5495 7.07391 13.2316 6.9493C12.9137 6.82469 12.6313 6.6283 12.4078 6.37653L12.4152 6.38421C12.3216 6.26624 12.2502 6.33099 12.2246 6.37982ZM9.47583 3.91799C9.19442 3.76488 8.87092 3.69982 8.54976 3.73174C8.19205 3.76729 7.85793 3.92105 7.60371 4.16713C7.34948 4.4132 7.1907 4.73654 7.1541 5.08267C7.12125 5.39342 7.18862 5.7064 7.34697 5.97862C7.50533 6.25084 7.74689 6.46896 8.0385 6.60302C8.33011 6.73708 8.65745 6.78051 8.97559 6.72735C9.29374 6.67419 9.58707 6.52704 9.81531 6.30611C10.0436 6.08518 10.1955 5.80131 10.2503 5.49347C10.3051 5.18563 10.2601 4.86891 10.1215 4.58682C9.98278 4.30473 9.75725 4.07109 9.47583 3.91799ZM15.3766 5.97635C15.5345 5.7038 15.6012 5.39066 15.5678 5.07992C15.5304 4.73408 15.371 4.41123 15.1166 4.1657C14.8621 3.92017 14.5279 3.76692 14.1704 3.73174C13.8491 3.70022 13.5257 3.76571 13.2445 3.91921C12.9632 4.07271 12.738 4.30669 12.5997 4.58902C12.4615 4.87134 12.4169 5.18816 12.4722 5.49597C12.5276 5.80377 12.68 6.08745 12.9087 6.30805C13.1373 6.52865 13.4309 6.67534 13.7492 6.72799C14.0675 6.78063 14.3948 6.73664 14.6862 6.60205C14.9776 6.46747 15.2188 6.24889 15.3766 5.97635ZM7.12709 19.1068C7.7805 19.3875 8.46118 19.6044 9.15905 19.7543C9.50801 18.5223 9.97901 17.3256 10.5655 16.1811C11.7113 13.9543 13.2738 11.9523 15.1738 10.2764H12.1647C10.5741 11.9795 9.26663 13.9113 8.2891 16.0028L8.25167 16.0856C7.80154 17.065 7.42569 18.0747 7.12709 19.1068ZM7.19061 14.7117C7.59358 13.9157 8.04249 13.1422 8.53523 12.395H8.53069C7.79681 11.8722 7.26559 11.1262 7.02218 10.2764H4.19854C4.34646 11.1779 4.68945 12.0389 5.20506 12.8032C5.72067 13.5675 6.39728 14.2178 7.19061 14.7117ZM9.34668 11.2351L9.3496 11.2372H9.34506L9.34668 11.2351ZM10.1073 10.2764C9.84395 10.5896 9.59042 10.9091 9.34668 11.2351C9.00604 10.9828 8.73444 10.6537 8.55564 10.2764H10.1073ZM2.60893 10.2764H0.709106C0.829981 11.9106 1.34551 13.4946 2.21425 14.901C3.08299 16.3073 4.28068 17.4968 5.71102 18.3738C5.94582 17.6055 6.22104 16.8493 6.5356 16.1081C5.46892 15.4855 4.56162 14.6375 3.88162 13.6276C3.20162 12.6177 2.76653 11.4721 2.60893 10.2764ZM11.9691 16.856C11.4558 17.8563 11.0382 18.8999 10.7214 19.9738C10.9778 19.9917 11.236 20.0007 11.4961 20.0007C11.992 20.0006 12.4873 19.9676 12.9785 19.9019C13.6936 17.8148 14.8339 15.8876 16.332 14.2342C17.8301 12.5808 19.6557 11.2348 21.7007 10.2759H17.6277C15.239 12.0144 13.3016 14.2673 11.9691 16.856ZM22.054 11.8024C18.7588 13.4424 16.1835 16.1751 14.799 19.5008V19.5014C16.596 18.9397 18.2105 17.934 19.4829 16.5838C20.7553 15.2336 21.6415 13.5855 22.054 11.8024ZM50.296 14.7601C51.0392 14.9655 51.8062 15.0681 52.597 15.0681C53.5117 15.0681 54.2882 14.9328 54.9266 14.6621C55.5649 14.3915 56.0413 14.0275 56.3557 13.5701C56.6797 13.1035 56.8417 12.5901 56.8417 12.0301C56.8417 11.3768 56.6654 10.8588 56.3129 10.4761C55.9699 10.0935 55.5554 9.81346 55.0695 9.63613C54.5836 9.4588 53.9595 9.28146 53.1973 9.10413C52.4636 8.94546 51.9158 8.7868 51.5537 8.62813C51.2012 8.46013 51.0249 8.20813 51.0249 7.87213C51.0249 7.53613 51.1773 7.26546 51.4822 7.06013C51.7967 6.8548 52.2778 6.75213 52.9257 6.75213C53.8499 6.75213 54.7741 7.0088 55.6983 7.52213L56.4129 5.80013C55.9556 5.52013 55.422 5.30546 54.8122 5.15613C54.2024 5.0068 53.5784 4.93213 52.94 4.93213C52.0253 4.93213 51.2488 5.06746 50.6104 5.33813C49.9816 5.6088 49.51 5.97746 49.1955 6.44413C48.8811 6.90146 48.7239 7.4148 48.7239 7.98413C48.7239 8.63746 48.8954 9.16013 49.2384 9.55213C49.591 9.94413 50.0102 10.2288 50.4961 10.4061C50.982 10.5835 51.6061 10.7608 52.3683 10.9381C52.8638 11.0501 53.2544 11.1528 53.5403 11.2461C53.8356 11.3395 54.0738 11.4655 54.2548 11.6241C54.4454 11.7735 54.5407 11.9648 54.5407 12.1981C54.5407 12.5155 54.3835 12.7721 54.069 12.9681C53.7546 13.1548 53.2687 13.2481 52.6113 13.2481C52.0206 13.2481 51.4298 13.1548 50.8391 12.9681C50.2484 12.7815 49.7386 12.5341 49.3099 12.2261L48.5238 13.9341C48.9716 14.2701 49.5624 14.5455 50.296 14.7601ZM37.3546 5.10013V14.9001H35.4538L30.4659 8.95013V14.9001H28.1792V5.10013H30.0943L35.0679 11.0501V5.10013H37.3546ZM47.4677 13.0801V14.9001H39.7215V5.10013H47.2819V6.92013H42.0225V9.04813H46.6673V10.8121H42.0225V13.0801H47.4677ZM60.3564 6.94813H57.1551V5.10013H65.8731V6.94813H62.6717V14.9001H60.3564V6.94813ZM71.3987 5H68.0385V5.82892H69.238V9H70.1907V5.82892H71.3987V5ZM75.3035 6.71566L75.312 9H76.2052L76.1882 5H75.414L74.0359 7.40964L72.6237 5H71.8411V9H72.7343V6.77349L73.8062 8.58554H74.2316L75.3035 6.71566Z" fill="white"/>
</svg>
