<svg width="24" height="24" viewBox="0 0 24 24" fill="none" xmlns="http://www.w3.org/2000/svg">
<path d="M1.27665 8.858C2.60565 14.138 9.86265 21.4 15.1417 22.723C15.8543 22.9036 16.5865 22.9957 17.3217 22.997C18.7187 22.9963 20.0942 22.653 21.3277 21.997C21.7598 21.7713 22.1329 21.4471 22.4167 21.0506C22.7005 20.6542 22.8871 20.1965 22.9614 19.7147C23.0358 19.2328 22.9958 18.7402 22.8447 18.2766C22.6936 17.8131 22.4357 17.3915 22.0917 17.046L20.0057 14.96C19.5635 14.518 18.9984 14.2195 18.3841 14.1033C17.7697 13.9872 17.1347 14.0589 16.5617 14.309C16.015 14.5451 15.5164 14.8796 15.0907 15.296C14.9127 15.473 14.5847 15.501 14.1137 15.373C12.8789 14.8712 11.7571 14.1271 10.8145 13.1847C9.87197 12.2423 9.1277 11.1207 8.62565 9.886C8.49965 9.415 8.52565 9.086 8.70365 8.909C9.12048 8.4827 9.45538 7.9834 9.69165 7.436C9.94119 6.86322 10.0126 6.2286 9.89644 5.6147C9.78034 5.00081 9.48214 4.43608 9.04065 3.994L6.95465 1.909C6.61309 1.56326 6.19421 1.30369 5.73258 1.15173C5.27095 0.999762 4.77979 0.959752 4.29965 1.035C3.81406 1.10631 3.35235 1.2919 2.95249 1.57649C2.55264 1.86109 2.22607 2.23655 1.99965 2.672C0.992352 4.57066 0.734338 6.77823 1.27665 8.858ZM3.77265 3.6C3.85428 3.44375 3.97179 3.30907 4.11555 3.20704C4.25931 3.105 4.42521 3.0385 4.59965 3.013C4.65488 3.0042 4.71073 2.99985 4.76665 3C4.91062 2.99995 5.05316 3.02848 5.18602 3.08392C5.31889 3.13937 5.43942 3.22063 5.54065 3.323L7.62565 5.408C7.78245 5.56296 7.88907 5.76146 7.93169 5.97775C7.9743 6.19404 7.95095 6.41814 7.86465 6.621C7.72809 6.94656 7.53322 7.24444 7.28965 7.5C6.93197 7.88107 6.68735 8.35413 6.58315 8.86628C6.47896 9.37843 6.51929 9.90947 6.69965 10.4C7.42165 13.1 10.9047 16.579 13.5997 17.3C14.0921 17.48 14.625 17.5192 15.1384 17.4133C15.6519 17.3073 16.1257 17.0603 16.5067 16.7C16.7607 16.4567 17.0569 16.2615 17.3807 16.124C17.5836 16.0375 17.8079 16.014 18.0244 16.0566C18.2409 16.0993 18.4396 16.206 18.5947 16.363L20.6797 18.448C20.8022 18.5693 20.8942 18.7179 20.9481 18.8817C21.002 19.0454 21.0162 19.2197 20.9897 19.39C20.9637 19.5647 20.8965 19.7307 20.7938 19.8743C20.691 20.0179 20.5556 20.135 20.3987 20.216C18.9385 21.0007 17.2342 21.1995 15.6327 20.772C11.0887 19.641 4.35965 12.912 3.21565 8.37C2.78868 6.76697 2.98783 5.06153 3.77265 3.6Z" fill="#4679E6"/>
</svg>
