<svg width="24" height="24" viewBox="0 0 24 24" fill="none" xmlns="http://www.w3.org/2000/svg">
<path d="M1.27763 8.85801C2.60663 14.138 9.86363 21.4 15.1426 22.723C15.8553 22.9036 16.5875 22.9957 17.3226 22.997C18.7197 22.9964 20.0952 22.653 21.3286 21.997C21.7608 21.7713 22.1338 21.4471 22.4176 21.0506C22.7015 20.6542 22.8881 20.1965 22.9624 19.7147C23.0368 19.2328 22.9968 18.7402 22.8457 18.2766C22.6946 17.8131 22.4366 17.3915 22.0926 17.046L20.0066 14.96C19.5645 14.518 18.9994 14.2195 18.385 14.1033C17.7707 13.9872 17.1356 14.0589 16.5626 14.309C16.016 14.5451 15.5173 14.8797 15.0916 15.296C14.9136 15.473 14.5856 15.501 14.1146 15.373C12.8798 14.8712 11.7581 14.1271 10.8155 13.1847C9.87294 12.2423 9.12868 11.1207 8.62663 9.88601C8.50063 9.41501 8.52663 9.08601 8.70463 8.90901C9.12146 8.48271 9.45636 7.98341 9.69263 7.43601C9.94217 6.86323 10.0135 6.2286 9.89742 5.61471C9.78131 5.00082 9.48311 4.43609 9.04163 3.99401L6.95563 1.90901C6.61407 1.56326 6.19519 1.3037 5.73356 1.15173C5.27192 0.999769 4.78077 0.95976 4.30063 1.03501C3.81504 1.10632 3.35333 1.29191 2.95347 1.5765C2.55361 1.86109 2.22704 2.23656 2.00063 2.67201C0.993328 4.57067 0.735315 6.77824 1.27763 8.85801ZM3.77363 3.60001C3.85525 3.44375 3.97277 3.30908 4.11653 3.20704C4.26029 3.105 4.42619 3.03851 4.60063 3.01301C4.65586 3.00421 4.7117 2.99986 4.76763 3.00001C4.91159 2.99996 5.05414 3.02849 5.187 3.08393C5.31986 3.13938 5.4404 3.22064 5.54163 3.32301L7.62663 5.40801C7.78343 5.56297 7.89005 5.76146 7.93266 5.97775C7.97528 6.19405 7.95192 6.41815 7.86563 6.62101C7.72906 6.94657 7.5342 7.24445 7.29063 7.50001C6.93294 7.88108 6.68833 8.35414 6.58413 8.86629C6.47994 9.37844 6.52027 9.90947 6.70063 10.4C7.42263 13.1 10.9056 16.579 13.6006 17.3C14.0931 17.48 14.6259 17.5192 15.1394 17.4133C15.6529 17.3073 16.1267 17.0603 16.5076 16.7C16.7617 16.4567 17.0578 16.2615 17.3816 16.124C17.5846 16.0375 17.8089 16.014 18.0254 16.0566C18.2419 16.0993 18.4406 16.206 18.5956 16.363L20.6806 18.448C20.8032 18.5693 20.8952 18.7179 20.9491 18.8817C21.003 19.0454 21.0172 19.2197 20.9906 19.39C20.9646 19.5647 20.8975 19.7307 20.7947 19.8743C20.692 20.0179 20.5566 20.135 20.3996 20.216C18.9395 21.0007 17.2352 21.1996 15.6336 20.772C11.0896 19.641 4.36063 12.912 3.21663 8.37001C2.78965 6.76698 2.9888 5.06153 3.77363 3.60001Z" fill="#333333"/>
</svg>
