<svg width="22" height="21" viewBox="0 0 22 21" fill="none" xmlns="http://www.w3.org/2000/svg">
<path d="M0.870274 7.98807C0.817987 8.17452 0.820959 8.37214 0.87883 8.55693C0.9367 8.74173 1.04698 8.90575 1.19627 9.02907L6.00127 12.9921L4.48627 19.7821C4.442 19.9799 4.45893 20.1866 4.53481 20.3746C4.61069 20.5627 4.74194 20.7232 4.91116 20.8349C5.08037 20.9466 5.27955 21.0043 5.48227 21.0002C5.685 20.9961 5.8817 20.9305 6.04627 20.8121L11.3333 17.0091L16.6203 20.8091C16.7849 20.9275 16.9816 20.9931 17.1843 20.9972C17.387 21.0013 17.5862 20.9436 17.7554 20.8319C17.9246 20.7202 18.0559 20.5597 18.1317 20.3716C18.2076 20.1836 18.2245 19.9769 18.1803 19.7791L16.6653 12.9891L21.4703 9.02607C21.6196 8.90288 21.73 8.73899 21.788 8.55428C21.8461 8.36957 21.8492 8.17199 21.7971 7.98552C21.745 7.79906 21.6399 7.63172 21.4946 7.50384C21.3492 7.37595 21.1699 7.293 20.9783 7.26507L15.1613 6.41607L12.2333 0.553068C12.1409 0.398092 12.0098 0.269764 11.8529 0.180647C11.696 0.0915295 11.5187 0.0446777 11.3383 0.0446777C11.1578 0.0446777 10.9805 0.0915295 10.8236 0.180647C10.6667 0.269764 10.5357 0.398092 10.4433 0.553068L7.50527 6.41907L1.68827 7.26807C1.4969 7.29612 1.31777 7.37906 1.17258 7.50686C1.0274 7.63465 0.922386 7.8018 0.870274 7.98807ZM8.31127 8.32307C8.4707 8.29983 8.62215 8.23841 8.75274 8.14404C8.88332 8.04967 8.98917 7.92515 9.06127 7.78107L11.3333 3.23607L13.6053 7.78107C13.6774 7.92515 13.7832 8.04967 13.9138 8.14404C14.0444 8.23841 14.1958 8.29983 14.3553 8.32307L18.4553 8.92307L14.9193 11.8401C14.777 11.9576 14.6701 12.1122 14.6102 12.2867C14.5504 12.4613 14.54 12.649 14.5803 12.8291L15.6563 17.6551L11.9173 14.9651C11.7471 14.8427 11.5429 14.7768 11.3333 14.7768C11.1237 14.7768 10.9194 14.8427 10.7493 14.9651L7.01027 17.6551L8.08627 12.8291C8.12651 12.649 8.11614 12.4613 8.05631 12.2867C7.99648 12.1122 7.88952 11.9576 7.74727 11.8401L4.20927 8.92107L8.31127 8.32307Z" fill="#4679E6"/>
</svg>
