<svg width="19" height="23" viewBox="0 0 19 23" fill="none" xmlns="http://www.w3.org/2000/svg">
<path d="M1.66663 22.5C1.40141 22.5 1.14706 22.3946 0.959519 22.2071C0.771983 22.0196 0.666626 21.7652 0.666626 21.5V18.5C0.666626 18.2348 0.771983 17.9804 0.959519 17.7929C1.14706 17.6054 1.40141 17.5 1.66663 17.5C1.93184 17.5 2.1862 17.6054 2.37373 17.7929C2.56127 17.9804 2.66663 18.2348 2.66663 18.5V21.5C2.66663 21.7652 2.56127 22.0196 2.37373 22.2071C2.1862 22.3946 1.93184 22.5 1.66663 22.5ZM10.6666 21.5V14.5C10.6666 14.2348 10.5613 13.9804 10.3737 13.7929C10.1862 13.6054 9.93184 13.5 9.66663 13.5C9.40141 13.5 9.14706 13.6054 8.95952 13.7929C8.77198 13.9804 8.66663 14.2348 8.66663 14.5V21.5C8.66663 21.7652 8.77198 22.0196 8.95952 22.2071C9.14706 22.3946 9.40141 22.5 9.66663 22.5C9.93184 22.5 10.1862 22.3946 10.3737 22.2071C10.5613 22.0196 10.6666 21.7652 10.6666 21.5ZM17.6666 10.5C17.4014 10.5 17.1471 10.6054 16.9595 10.7929C16.772 10.9804 16.6666 11.2348 16.6666 11.5V21.5C16.6666 21.7652 16.772 22.0196 16.9595 22.2071C17.1471 22.3946 17.4014 22.5 17.6666 22.5C17.9318 22.5 18.1862 22.3946 18.3737 22.2071C18.5613 22.0196 18.6666 21.7652 18.6666 21.5V11.5C18.6666 11.2348 18.5613 10.9804 18.3737 10.7929C18.1862 10.6054 17.9318 10.5 17.6666 10.5ZM18.0486 0.577C17.9276 0.526304 17.7978 0.500132 17.6666 0.5H13.6666C13.4014 0.5 13.1471 0.605357 12.9595 0.792893C12.772 0.98043 12.6666 1.23478 12.6666 1.5C12.6666 1.76522 12.772 2.01957 12.9595 2.20711C13.1471 2.39464 13.4014 2.5 13.6666 2.5H15.2526L9.66663 8.086L6.37363 4.793C6.1861 4.60553 5.93179 4.50021 5.66663 4.50021C5.40146 4.50021 5.14715 4.60553 4.95963 4.793L0.959626 8.793C0.777468 8.9816 0.676674 9.2342 0.678952 9.4964C0.68123 9.7586 0.786399 10.0094 0.971807 10.1948C1.15722 10.3802 1.40803 10.4854 1.67022 10.4877C1.93242 10.49 2.18502 10.3892 2.37363 10.207L5.66663 6.914L8.95963 10.207C9.14715 10.3945 9.40146 10.4998 9.66663 10.4998C9.93179 10.4998 10.1861 10.3945 10.3736 10.207L16.6666 3.914V5.5C16.6666 5.76522 16.772 6.01957 16.9595 6.20711C17.1471 6.39464 17.4014 6.5 17.6666 6.5C17.9318 6.5 18.1862 6.39464 18.3737 6.20711C18.5613 6.01957 18.6666 5.76522 18.6666 5.5V1.5C18.6664 1.30229 18.6076 1.10909 18.4976 0.944801C18.3876 0.780517 18.2313 0.652525 18.0486 0.577Z" fill="#4679E6"/>
</svg>
