<svg width="18" height="18" viewBox="0 0 18 18" fill="none" xmlns="http://www.w3.org/2000/svg">
<path d="M7.71959 4.71053C7.86104 4.57392 8.05049 4.49832 8.24714 4.50003C8.44379 4.50174 8.6319 4.58061 8.77095 4.71967C8.91001 4.85873 8.98889 5.04684 8.9906 5.24348C8.9923 5.44013 8.91671 5.62958 8.78009 5.77104L6.31034 8.24078L14.2498 8.24079C14.4488 8.24079 14.6395 8.3198 14.7802 8.46046C14.9208 8.60111 14.9998 8.79187 14.9998 8.99079C14.9998 9.1897 14.9208 9.38046 14.7802 9.52112C14.6395 9.66177 14.4488 9.74079 14.2498 9.74079L6.31034 9.74078L8.78009 12.2105C8.91671 12.352 8.9923 12.5414 8.9906 12.7381C8.98889 12.9347 8.91001 13.1228 8.77095 13.2619C8.6319 13.401 8.44379 13.4798 8.24714 13.4815C8.05049 13.4832 7.86104 13.4077 7.71959 13.271L3.96959 9.52103C3.82899 9.38039 3.75 9.18966 3.75 8.99078C3.75 8.79191 3.82899 8.60118 3.96959 8.46053L7.71959 4.71053Z" fill="white"/>
</svg>
