<svg width="20" height="17" viewBox="0 0 20 17" fill="none" xmlns="http://www.w3.org/2000/svg">
<path d="M19.7025 2.61464C19.0067 2.92297 18.2592 3.1313 17.4734 3.22547C18.2842 2.7403 18.8908 1.97669 19.18 1.07714C18.4183 1.52963 17.5845 1.84813 16.7151 2.0188C16.1304 1.39453 15.3559 0.980743 14.512 0.841699C13.668 0.702656 12.8018 0.846131 12.0477 1.24985C11.2937 1.65357 10.694 2.29494 10.3418 3.07439C9.98966 3.85384 9.90466 4.72776 10.1 5.56047C8.55646 5.48297 7.04641 5.08176 5.6679 4.38289C4.2894 3.68402 3.07325 2.70311 2.09838 1.5038C1.76505 2.0788 1.57338 2.74547 1.57338 3.45547C1.57301 4.09463 1.73041 4.72401 2.03162 5.28775C2.33282 5.85149 2.76852 6.33217 3.30005 6.68714C2.68361 6.66752 2.08078 6.50096 1.54172 6.2013V6.2513C1.54165 7.14776 1.85174 8.01662 2.41937 8.71047C2.98699 9.40432 3.77719 9.88041 4.65588 10.058C4.08404 10.2127 3.4845 10.2355 2.90255 10.1246C3.15046 10.896 3.63338 11.5705 4.28369 12.0537C4.934 12.537 5.71915 12.8048 6.52922 12.8196C5.15408 13.8991 3.45579 14.4847 1.70755 14.4821C1.39787 14.4822 1.08845 14.4641 0.780884 14.428C2.55545 15.569 4.62117 16.1745 6.73088 16.1721C13.8726 16.1721 17.7767 10.2571 17.7767 5.12714C17.7767 4.96047 17.7726 4.79214 17.7651 4.62547C18.5245 4.07628 19.18 3.39622 19.7009 2.61714L19.7025 2.61464Z" fill="#4679E6"/>
</svg>
