<svg width="18" height="18" viewBox="0 0 18 18" fill="none" xmlns="http://www.w3.org/2000/svg">
<g clip-path="url(#clip0_1850_8239)">
<path d="M0.957732 6.64351C1.95448 10.6035 7.39723 16.05 11.3565 17.0423C11.891 17.1777 12.4401 17.2468 12.9915 17.2478C14.0393 17.2473 15.0709 16.9897 15.996 16.4978C16.3201 16.3285 16.5999 16.0853 16.8127 15.788C17.0256 15.4906 17.1656 15.1474 17.2213 14.786C17.2771 14.4246 17.2471 14.0552 17.1338 13.7075C17.0205 13.3598 16.827 13.0436 16.569 12.7845L15.0045 11.22C14.6729 10.8885 14.249 10.6646 13.7883 10.5775C13.3275 10.4904 12.8512 10.5442 12.4215 10.7318C12.0115 10.9088 11.6375 11.1597 11.3182 11.472C11.1847 11.6048 10.9387 11.6258 10.5855 11.5298C9.65939 11.1534 8.81807 10.5953 8.11114 9.88855C7.40422 9.18175 6.84602 8.34053 6.46948 7.41451C6.37498 7.06126 6.39448 6.81451 6.52798 6.68176C6.8406 6.36203 7.09178 5.98756 7.26898 5.57701C7.45614 5.14742 7.50966 4.67145 7.42258 4.21103C7.3355 3.75061 7.11185 3.32707 6.78073 2.99551L5.21623 1.43176C4.96006 1.17245 4.64591 0.977775 4.29968 0.863801C3.95345 0.749827 3.58509 0.71982 3.22498 0.776256C2.86079 0.829739 2.51451 0.968929 2.21461 1.18237C1.91472 1.39582 1.66979 1.67742 1.49998 2.00401C0.744508 3.428 0.550998 5.08368 0.957732 6.64351ZM2.82973 2.70001C2.89095 2.58282 2.97909 2.48181 3.08691 2.40528C3.19473 2.32875 3.31915 2.27888 3.44998 2.25976C3.4914 2.25316 3.53329 2.2499 3.57523 2.25001C3.68321 2.24997 3.79012 2.27136 3.88976 2.31295C3.98941 2.35453 4.07981 2.41548 4.15573 2.49226L5.71948 4.05601C5.83708 4.17223 5.91705 4.3211 5.94901 4.48332C5.98097 4.64553 5.96345 4.81361 5.89873 4.96576C5.79631 5.20992 5.65016 5.43334 5.46748 5.62501C5.19922 5.91081 5.01576 6.26561 4.93761 6.64972C4.85946 7.03383 4.88971 7.43211 5.02498 7.80001C5.56648 9.82501 8.17873 12.4343 10.2 12.975C10.5693 13.11 10.969 13.1394 11.3541 13.0599C11.7392 12.9805 12.0945 12.7952 12.3802 12.525C12.5708 12.3425 12.7929 12.1961 13.0357 12.093C13.188 12.0281 13.3562 12.0105 13.5186 12.0425C13.6809 12.0744 13.83 12.1545 13.9462 12.2723L15.51 13.836C15.6019 13.927 15.6709 14.0384 15.7113 14.1613C15.7517 14.2841 15.7624 14.4147 15.7425 14.5425C15.723 14.6735 15.6726 14.798 15.5956 14.9057C15.5185 15.0134 15.4169 15.1013 15.2992 15.162C14.2041 15.7505 12.9259 15.8997 11.7247 15.579C8.31673 14.7308 3.26998 9.68401 2.41198 6.27751C2.09175 5.07523 2.24111 3.79615 2.82973 2.70001Z" fill="white"/>
</g>
<defs>
<clipPath id="clip0_1850_8239">
<rect width="18" height="18" fill="white"/>
</clipPath>
</defs>
</svg>
