<svg width="20" height="15" viewBox="0 0 20 15" fill="none" xmlns="http://www.w3.org/2000/svg">
<path d="M19.5834 2.92289C19.4701 2.51891 19.2495 2.15318 18.945 1.86456C18.6319 1.56706 18.2482 1.35425 17.83 1.24622C16.265 0.833722 9.99503 0.833722 9.99503 0.833722C7.38113 0.803983 4.76788 0.934784 2.17003 1.22539C1.75185 1.3414 1.36883 1.55896 1.05503 1.85872C0.746693 2.15539 0.523359 2.52122 0.406693 2.92206C0.126437 4.43184 -0.00973061 5.96484 2.60381e-05 7.50039C-0.00997396 9.03456 0.125859 10.5671 0.406693 12.0787C0.520859 12.4779 0.743359 12.8421 1.05253 13.1362C1.36169 13.4304 1.74669 13.6429 2.17003 13.7554C3.75586 14.1671 9.99503 14.1671 9.99503 14.1671C12.6122 14.1968 15.2288 14.066 17.83 13.7754C18.2482 13.6674 18.6319 13.4546 18.945 13.1571C19.2494 12.8685 19.4698 12.5027 19.5825 12.0987C19.8701 10.5895 20.0099 9.05588 20 7.51956C20.0217 5.97673 19.882 4.43586 19.5834 2.92206V2.92289ZM8.00169 10.3537V4.64789L13.2184 7.50122L8.00169 10.3537Z" fill="#4679E6"/>
</svg>
