<svg width="275" height="49" viewBox="0 0 275 49" fill="none" xmlns="http://www.w3.org/2000/svg">
<g clip-path="url(#clip0_1882_9731)">
<path d="M62.4864 21.0105C62.1274 21.0105 61.7883 20.9369 61.4691 20.7965C61.15 20.6561 60.8707 20.4622 60.6314 20.2281C60.392 19.9941 60.2058 19.7132 60.0662 19.3923C59.9266 19.0713 59.8601 18.7303 59.8601 18.3625V13.0665C59.8601 12.7054 59.9266 12.3643 60.0662 12.0434C60.2058 11.7224 60.392 11.4416 60.6314 11.2008C60.8707 10.9668 61.15 10.7729 61.4691 10.6324C61.7883 10.492 62.1274 10.4185 62.4864 10.4185H71.4226C71.7816 10.4185 72.1207 10.492 72.4465 10.6324C72.7723 10.7729 73.0449 10.9668 73.2843 11.2008C73.5236 11.4349 73.7098 11.7157 73.8494 12.0434C73.9891 12.3643 74.0556 12.7054 74.0556 13.0665V15.4537H71.4226V13.0665H62.4864V18.3625H71.4226C71.7816 18.3625 72.1207 18.4294 72.4465 18.5698C72.7723 18.7102 73.0449 18.8974 73.2843 19.1382C73.5236 19.3789 73.7098 19.6597 73.8494 19.9807C73.9891 20.3017 74.0556 20.6427 74.0556 21.0105V26.2931C74.0556 26.6542 73.9891 26.9953 73.8494 27.3162C73.7098 27.6372 73.5236 27.9181 73.2843 28.1588C73.0449 28.3995 72.7657 28.5867 72.4465 28.7272C72.1274 28.8676 71.7883 28.9345 71.4226 28.9345H62.2337C61.8747 28.9345 61.5356 28.8676 61.2165 28.7272C60.8973 28.5867 60.6181 28.3995 60.3787 28.1588C60.1393 27.9181 59.9532 27.6372 59.8135 27.3162C59.6739 26.9953 59.6074 26.6542 59.6074 26.2931V23.9193H62.2404V26.2931H71.4292V21.0105H62.4931H62.4864Z" fill="#4679E6"/>
<path d="M78.7969 10.4253H81.4299V26.2933H91.9418V10.4253H94.5748V26.2933C94.5748 26.6544 94.5083 26.9954 94.3687 27.3164C94.229 27.6374 94.0429 27.9182 93.8035 28.1589C93.5642 28.3997 93.2849 28.5869 92.9658 28.7273C92.6466 28.8677 92.3075 28.9346 91.9418 28.9346H81.4299C81.0708 28.9346 80.7317 28.8677 80.4126 28.7273C80.0934 28.5869 79.8142 28.3997 79.5748 28.1589C79.3354 27.9182 79.1493 27.6374 79.0096 27.3164C78.87 26.9954 78.8035 26.6544 78.8035 26.2933V10.4253H78.7969Z" fill="#4679E6"/>
<path d="M99.2949 28.9413V10.4253H109.375C112.353 10.4253 113.843 11.9298 113.843 14.9323V17.5669C113.843 20.5693 112.353 22.0739 109.375 22.0739H101.928V28.9413H99.2949ZM101.928 19.4258H109.235C109.94 19.4258 110.439 19.2721 110.751 18.9578C111.064 18.6435 111.216 18.142 111.216 17.4332V15.0593C111.216 14.3505 111.064 13.849 110.751 13.5347C110.439 13.2204 109.94 13.0666 109.235 13.0666H101.928V19.4192V19.4258Z" fill="#4679E6"/>
<path d="M117.514 10.4253H130.931V13.0733H120.147V18.3693H129.349V21.0173H120.147V26.3H130.931V28.948H117.514V10.4253Z" fill="#4679E6"/>
<path d="M149.415 17.0386C149.415 19.6198 148.318 21.0909 146.13 21.452L149.595 28.9413H146.682L143.265 21.5456H137.5V28.9413H134.867V10.4253H144.947C147.926 10.4253 149.415 11.9298 149.415 14.9323V17.0386ZM137.5 18.8976H144.807C145.512 18.8976 146.017 18.7438 146.323 18.4362C146.629 18.1286 146.789 17.6204 146.789 16.9116V15.066C146.789 14.3572 146.636 13.8557 146.323 13.5414C146.017 13.2338 145.512 13.0733 144.807 13.0733H137.5V18.8976Z" fill="#4679E6"/>
<path d="M156.436 21.0105C156.077 21.0105 155.738 20.9369 155.412 20.7965C155.093 20.6561 154.814 20.4622 154.575 20.2281C154.335 19.9941 154.149 19.7132 154.01 19.3923C153.87 19.0713 153.803 18.7303 153.803 18.3625V13.0665C153.803 12.7054 153.87 12.3643 154.01 12.0434C154.149 11.7224 154.335 11.4416 154.575 11.2008C154.814 10.9668 155.093 10.7729 155.412 10.6324C155.732 10.492 156.077 10.4185 156.436 10.4185H165.373C165.732 10.4185 166.071 10.492 166.397 10.6324C166.722 10.7729 166.995 10.9668 167.234 11.2008C167.474 11.4349 167.66 11.7157 167.799 12.0434C167.939 12.3643 168.006 12.7054 168.006 13.0665V15.4537H165.373V13.0665H156.436V18.3625H165.373C165.732 18.3625 166.071 18.4294 166.397 18.5698C166.722 18.7102 166.995 18.8974 167.234 19.1382C167.474 19.3789 167.66 19.6597 167.799 19.9807C167.939 20.3017 168.006 20.6427 168.006 21.0105V26.2931C168.006 26.6542 167.939 26.9953 167.799 27.3162C167.66 27.6372 167.474 27.9181 167.234 28.1588C166.995 28.3995 166.716 28.5867 166.397 28.7272C166.077 28.8676 165.738 28.9345 165.373 28.9345H156.184C155.825 28.9345 155.486 28.8676 155.16 28.7272C154.841 28.5867 154.561 28.3995 154.322 28.1588C154.083 27.9181 153.897 27.6372 153.757 27.3162C153.617 26.9953 153.551 26.6542 153.551 26.2931V23.9193H156.184V26.2931H165.373V21.0105H156.436Z" fill="#4679E6"/>
<path d="M171.163 10.4253H185.89V13.0733H179.847V28.9413H177.214V13.0733H171.17V10.4253H171.163Z" fill="#4679E6"/>
<path d="M189.05 10.4253H202.467V13.0733H191.683V18.3693H200.885V21.0173H191.683V26.3H202.467V28.948H189.05V10.4253Z" fill="#4679E6"/>
<path d="M209.036 10.4253V28.9413H206.403V10.4253H209.036Z" fill="#4679E6"/>
<path d="M216.389 28.9413H213.756V10.4253H216.389L227.453 24.7821V10.4253H230.086V28.9413H227.453L216.389 14.5845V28.9413Z" fill="#4679E6"/>
<path d="M242.692 28.9413V10.4253H252.772C255.751 10.4253 257.24 11.9298 257.24 14.9323V17.5669C257.24 20.5693 255.751 22.0739 252.772 22.0739H245.325V28.9413H242.692ZM245.325 19.4258H252.633C253.337 19.4258 253.843 19.2721 254.148 18.9578C254.454 18.6502 254.614 18.142 254.614 17.4332V15.0593C254.614 14.3505 254.461 13.849 254.148 13.5347C253.843 13.2271 253.337 13.0666 252.633 13.0666H245.325V19.4192V19.4258Z" fill="#4679E6"/>
<path d="M267.487 10.4253L274.588 28.9413H271.955L270.326 24.6817H262.022L260.393 28.9413H257.76L264.861 10.4253H267.494H267.487ZM263.019 22.0337H269.309L266.177 13.8757L263.019 22.0337Z" fill="#4679E6"/>
<path d="M73.8562 41.2783C73.8562 41.2783 73.6434 41.1647 73.2179 40.9306C72.7923 40.6966 72.4665 40.3622 72.2405 39.9209C72.0144 39.4796 71.9014 38.9446 71.9014 38.316V36.1361C71.9014 35.5076 72.0144 34.9726 72.2405 34.5313C72.4665 34.0899 72.7923 33.7489 73.2179 33.5215C73.6434 33.2875 74.162 33.1738 74.7604 33.1738C75.2591 33.1738 75.6979 33.2808 76.0902 33.4948C76.4825 33.7088 76.8016 34.0231 77.0609 34.431C77.3136 34.8389 77.4931 35.3337 77.5929 35.9155H76.0503C75.9905 35.6547 75.904 35.4273 75.7843 35.2468C75.6647 35.0595 75.5184 34.9191 75.3455 34.8188C75.1726 34.7185 74.9798 34.6717 74.7671 34.6717C74.4878 34.6717 74.2484 34.7319 74.0556 34.8456C73.8628 34.9592 73.7099 35.1264 73.6101 35.3471C73.5104 35.5677 73.4572 35.8352 73.4572 36.1428V38.3227C73.4572 38.6303 73.5104 38.8978 73.6101 39.1118C73.7099 39.3258 73.8628 39.4996 74.0556 39.6133C74.2484 39.727 74.4878 39.7872 74.7671 39.7872C74.9865 39.7872 75.1793 39.7404 75.3522 39.6401C75.525 39.5397 75.6713 39.3993 75.791 39.2188C75.9107 39.0315 75.9971 38.8042 76.0503 38.5434H77.5929C77.4931 39.1252 77.3136 39.6133 77.0609 40.0279C76.8083 40.4358 76.4825 40.7501 76.0968 40.9641C75.7112 41.178 75.2657 41.285 74.7671 41.285H73.8628L73.8562 41.2783Z" fill="white"/>
<path d="M80.4385 41.2784L79.8601 40.9775C79.4744 40.7769 79.1819 40.4894 78.9758 40.1082C78.7763 39.7271 78.6699 39.2724 78.6699 38.7374V38.0955C78.6699 37.5338 78.7697 37.059 78.9625 36.6578C79.1553 36.2633 79.4412 35.9557 79.8069 35.7484C80.1792 35.5411 80.6247 35.4341 81.15 35.4341C81.642 35.4341 82.0675 35.5611 82.4133 35.8085C82.7657 36.056 83.0316 36.4171 83.2111 36.8851C83.3907 37.3532 83.4838 37.9283 83.4838 38.5903V38.9648H79.6274V37.955H82.1274L82.1141 37.8213C82.0742 37.4936 81.9744 37.2395 81.8082 37.059C81.642 36.8784 81.4226 36.7915 81.15 36.7915C80.7909 36.7915 80.5117 36.8985 80.3189 37.1125C80.126 37.3265 80.0197 37.6341 80.0197 38.0219V38.7441C80.0197 39.1319 80.126 39.4262 80.3455 39.6401C80.5582 39.8541 80.8641 39.9544 81.2497 39.9544C81.4492 39.9544 81.6486 39.921 81.8415 39.8474C82.0343 39.7739 82.2138 39.6736 82.3734 39.5465L83.3441 40.4158C83.0516 40.6833 82.7191 40.8906 82.3534 41.0444C81.9877 41.1915 81.6221 41.265 81.2431 41.265H80.4319L80.4385 41.2784Z" fill="white"/>
<path d="M84.7998 35.5275H86.3956V41.198H84.7998V35.5275ZM87.7054 36.9451C87.599 36.9117 87.4793 36.8916 87.3397 36.8916C87.0405 36.8916 86.8078 36.9919 86.6416 37.1859C86.4753 37.3798 86.3956 37.6539 86.3956 37.995L86.2825 36.5172C86.4354 36.1761 86.6416 35.9153 86.8876 35.7281C87.1336 35.5409 87.4062 35.4473 87.7054 35.4473C87.9381 35.4473 88.1509 35.4874 88.3437 35.5609C88.5365 35.6345 88.6961 35.7482 88.8424 35.8886L87.9713 37.1056C87.8982 37.0321 87.8118 36.9786 87.7054 36.9384V36.9451Z" fill="white"/>
<path d="M89.1084 35.5276H91.8677V36.8048H89.1084V35.5276ZM90.0326 40.8437C89.7999 40.5896 89.6869 40.2152 89.6869 39.7203V33.876H91.1762V39.3459C91.1762 39.4863 91.2028 39.5933 91.256 39.6668C91.3092 39.7404 91.389 39.7805 91.4954 39.7805H91.8677V41.2249H91.1164C90.6243 41.2249 90.2653 41.0978 90.0326 40.8437Z" fill="white"/>
<path d="M93.0918 33.2539H94.5812V34.7518H93.0918V33.2539ZM93.0918 35.5275H94.5812V41.1979H93.0918V35.5275Z" fill="white"/>
<path d="M95.5312 35.5275H98.5632V36.8046H95.5312V35.5275ZM96.1297 34.7585C96.1297 34.2569 96.2427 33.8825 96.4754 33.6284C96.7081 33.3743 97.0605 33.2539 97.5392 33.2539H98.5698V34.5846H97.9382C97.8318 34.5846 97.752 34.6247 97.6988 34.705C97.6456 34.7852 97.619 34.8855 97.619 35.0192V41.1979H96.1297V34.7585Z" fill="white"/>
<path d="M99.5674 33.2539H101.057V34.7518H99.5674V33.2539ZM99.5674 35.5275H101.057V41.1979H99.5674V35.5275Z" fill="white"/>
<path d="M104.042 41.2784L103.464 40.9775C103.078 40.7769 102.785 40.4894 102.579 40.1082C102.38 39.7271 102.273 39.2724 102.273 38.7374V38.0955C102.273 37.5338 102.373 37.059 102.566 36.6578C102.759 36.2633 103.045 35.9557 103.41 35.7484C103.783 35.5411 104.228 35.4341 104.753 35.4341C105.246 35.4341 105.671 35.5611 106.017 35.8085C106.369 36.056 106.635 36.4171 106.815 36.8851C106.994 37.3532 107.087 37.9283 107.087 38.5903V38.9648H103.231V37.955H105.731L105.718 37.8213C105.678 37.4936 105.578 37.2395 105.412 37.059C105.246 36.8784 105.026 36.7915 104.753 36.7915C104.394 36.7915 104.115 36.8985 103.922 37.1125C103.73 37.3265 103.623 37.6341 103.623 38.0219V38.7441C103.623 39.1319 103.73 39.4262 103.949 39.6401C104.162 39.8541 104.468 39.9544 104.853 39.9544C105.053 39.9544 105.252 39.921 105.445 39.8474C105.638 39.7739 105.817 39.6736 105.977 39.5465L106.948 40.4158C106.655 40.6833 106.323 40.8906 105.957 41.0444C105.591 41.1915 105.226 41.265 104.847 41.265H104.035L104.042 41.2784Z" fill="white"/>
<path d="M109.108 40.984C108.822 40.79 108.61 40.5092 108.457 40.1481C108.31 39.7803 108.237 39.339 108.237 38.8241V37.9147C108.237 37.3931 108.31 36.9451 108.457 36.5773C108.603 36.2028 108.822 35.922 109.108 35.7281C109.394 35.5341 109.733 35.4405 110.132 35.4405C110.431 35.4405 110.704 35.5275 110.957 35.708C111.203 35.8885 111.402 36.1426 111.555 36.477L111.442 37.7341C111.442 37.5402 111.409 37.3797 111.342 37.246C111.276 37.1122 111.183 37.0053 111.056 36.9384C110.93 36.8648 110.777 36.8314 110.604 36.8314C110.325 36.8314 110.112 36.925 109.953 37.1189C109.8 37.3128 109.72 37.5803 109.72 37.9214V38.8241C109.72 39.1651 109.8 39.4259 109.953 39.6131C110.106 39.8004 110.325 39.894 110.604 39.894C110.784 39.894 110.93 39.8606 111.056 39.787C111.183 39.7201 111.276 39.6198 111.342 39.4861C111.409 39.3524 111.442 39.1986 111.442 39.0113L111.515 40.3086C111.402 40.6162 111.223 40.8569 110.983 41.0241C110.744 41.1912 110.458 41.2782 110.132 41.2782C109.733 41.2782 109.394 41.1846 109.108 40.9906V40.984ZM111.442 33.2539H112.931V41.1912H111.442V33.2539Z" fill="white"/>
<path d="M116.409 33.2539H117.899V41.1912H116.409V33.2539ZM117.087 36.6709H119.614C119.793 36.6709 119.946 36.6308 120.086 36.5505C120.226 36.4703 120.325 36.3499 120.405 36.2028C120.485 36.0557 120.518 35.8819 120.518 35.6879C120.518 35.494 120.478 35.3202 120.405 35.1664C120.332 35.0126 120.226 34.8989 120.093 34.8186C119.96 34.7384 119.8 34.6983 119.621 34.6983H117.094V33.2539H119.581C120.073 33.2539 120.505 33.3542 120.884 33.5548C121.256 33.7554 121.549 34.043 121.755 34.4107C121.961 34.7785 122.067 35.2065 122.067 35.6879C122.067 36.1694 121.968 36.5974 121.755 36.9651C121.549 37.3329 121.256 37.6138 120.884 37.8144C120.512 38.015 120.073 38.1153 119.581 38.1153H117.094V36.6709H117.087Z" fill="white"/>
<path d="M124.442 38.9714C124.442 39.2456 124.521 39.4596 124.674 39.6067C124.827 39.7605 125.047 39.834 125.326 39.834C125.605 39.834 125.818 39.7538 125.971 39.6C126.124 39.4462 126.197 39.2255 126.197 38.938L126.27 40.1751C126.164 40.4827 125.991 40.7435 125.745 40.9574C125.499 41.1714 125.2 41.2717 124.854 41.2717C124.249 41.2717 123.783 41.0778 123.451 40.6833C123.119 40.2888 122.959 39.7404 122.959 39.0182V35.521H124.448V38.9647L124.442 38.9714ZM126.19 35.5277H127.673V41.1982H126.19V35.5277Z" fill="white"/>
<path d="M129.136 33.2539H130.625V41.1912H129.136V33.2539ZM131.077 41.0241C130.838 40.8569 130.658 40.6162 130.545 40.3086L130.618 39.0113C130.618 39.1986 130.652 39.3524 130.718 39.4861C130.785 39.6198 130.878 39.7201 131.004 39.787C131.13 39.8539 131.283 39.894 131.456 39.894C131.735 39.894 131.948 39.8004 132.108 39.6131C132.261 39.4259 132.341 39.1651 132.341 38.8241V37.9214C132.341 37.5736 132.261 37.3062 132.108 37.1189C131.955 36.925 131.735 36.8314 131.456 36.8314C131.277 36.8314 131.13 36.8648 131.004 36.9384C130.878 37.0119 130.785 37.1122 130.718 37.246C130.652 37.3797 130.618 37.5469 130.618 37.7341L130.505 36.477C130.658 36.1426 130.858 35.8885 131.104 35.708C131.35 35.5275 131.629 35.4405 131.928 35.4405C132.327 35.4405 132.666 35.5341 132.952 35.7281C133.238 35.922 133.451 36.2028 133.604 36.5773C133.75 36.9518 133.823 37.3931 133.823 37.9147V38.8241C133.823 39.339 133.75 39.7803 133.604 40.1481C133.458 40.5159 133.238 40.7967 132.952 40.984C132.666 41.1779 132.327 41.2715 131.928 41.2715C131.596 41.2715 131.317 41.1846 131.077 41.0174V41.0241Z" fill="white"/>
<path d="M136.675 39.3189C136.675 39.4593 136.715 39.5663 136.795 39.6399C136.875 39.7134 136.981 39.7536 137.127 39.7536H137.38V41.1979H136.622C136.17 41.1979 135.818 41.0642 135.572 40.8034C135.319 40.5426 135.199 40.1748 135.199 39.6934V33.2539H136.689V39.3189H136.675Z" fill="white"/>
<path d="M138.324 33.2539H139.814V34.7518H138.324V33.2539ZM138.324 35.5275H139.814V41.1979H138.324V35.5275Z" fill="white"/>
<path d="M142.772 41.2782L142.2 40.9706C141.821 40.7633 141.529 40.4624 141.329 40.0746C141.13 39.6801 141.03 39.2053 141.03 38.657V38.0485C141.03 37.5001 141.13 37.0321 141.329 36.6442C141.529 36.2564 141.821 35.9622 142.2 35.7549C142.579 35.5476 143.038 35.4473 143.577 35.4473C143.883 35.4473 144.175 35.4807 144.448 35.5543C144.72 35.6278 144.966 35.7281 145.186 35.8619C145.405 35.9956 145.585 36.1628 145.731 36.3567L144.767 37.2928C144.627 37.1658 144.468 37.0655 144.282 36.9986C144.095 36.9251 143.903 36.8916 143.703 36.8916C143.324 36.8916 143.038 36.9919 142.832 37.1925C142.626 37.3932 142.52 37.6807 142.52 38.0485V38.657C142.52 39.0381 142.626 39.3257 142.832 39.533C143.038 39.7403 143.331 39.8406 143.703 39.8406C143.909 39.8406 144.102 39.8004 144.288 39.7269C144.474 39.6533 144.634 39.5396 144.767 39.3992L145.731 40.3956C145.585 40.5828 145.399 40.7433 145.179 40.877C144.96 41.0108 144.72 41.1111 144.448 41.1779C144.175 41.2448 143.889 41.2849 143.577 41.2849H142.772V41.2782Z" fill="white"/>
<path d="M151.004 33.2539H151.948L154.967 41.1912H153.364L151.476 35.7682L149.588 41.1912H147.985L151.004 33.2539ZM149.435 38.4831H153.59V39.9274H149.435V38.4831Z" fill="white"/>
<path d="M157.413 41.2782L156.841 40.9706C156.462 40.7633 156.17 40.4624 155.97 40.0746C155.771 39.6801 155.671 39.2053 155.671 38.657V38.0485C155.671 37.5001 155.771 37.0321 155.97 36.6442C156.17 36.2564 156.462 35.9622 156.841 35.7549C157.22 35.5476 157.679 35.4473 158.217 35.4473C158.523 35.4473 158.816 35.4807 159.088 35.5543C159.361 35.6278 159.607 35.7281 159.826 35.8619C160.046 35.9956 160.225 36.1628 160.372 36.3567L159.408 37.2928C159.268 37.1658 159.108 37.0655 158.922 36.9986C158.736 36.9251 158.543 36.8916 158.344 36.8916C157.965 36.8916 157.679 36.9919 157.473 37.1925C157.267 37.3932 157.16 37.6807 157.16 38.0485V38.657C157.16 39.0381 157.267 39.3257 157.473 39.533C157.679 39.7403 157.971 39.8406 158.344 39.8406C158.55 39.8406 158.743 39.8004 158.929 39.7269C159.115 39.6533 159.275 39.5396 159.408 39.3992L160.372 40.3956C160.225 40.5828 160.039 40.7433 159.82 40.877C159.6 41.0108 159.361 41.1111 159.088 41.1779C158.816 41.2448 158.53 41.2849 158.217 41.2849H157.413V41.2782Z" fill="white"/>
<path d="M162.952 41.2782L162.38 40.9706C162.001 40.7633 161.709 40.4624 161.509 40.0746C161.31 39.6801 161.21 39.2053 161.21 38.657V38.0485C161.21 37.5001 161.31 37.0321 161.509 36.6442C161.709 36.2564 162.001 35.9622 162.38 35.7549C162.759 35.5476 163.218 35.4473 163.756 35.4473C164.062 35.4473 164.355 35.4807 164.628 35.5543C164.9 35.6278 165.146 35.7281 165.366 35.8619C165.585 35.9956 165.764 36.1628 165.911 36.3567L164.947 37.2928C164.807 37.1658 164.647 37.0655 164.461 36.9986C164.275 36.9251 164.082 36.8916 163.883 36.8916C163.504 36.8916 163.218 36.9919 163.012 37.1925C162.806 37.3932 162.699 37.6807 162.699 38.0485V38.657C162.699 39.0381 162.806 39.3257 163.012 39.533C163.218 39.7403 163.51 39.8406 163.883 39.8406C164.089 39.8406 164.282 39.8004 164.468 39.7269C164.654 39.6533 164.814 39.5396 164.947 39.3992L165.911 40.3956C165.764 40.5828 165.578 40.7433 165.359 40.877C165.139 41.0108 164.9 41.1111 164.628 41.1779C164.355 41.2448 164.069 41.2849 163.756 41.2849H162.952V41.2782Z" fill="white"/>
<path d="M167.865 40.9844C167.499 40.7904 167.227 40.5096 167.034 40.1418C166.841 39.774 166.748 39.326 166.748 38.8044V37.8816C166.748 37.3667 166.841 36.9321 167.034 36.5643C167.227 36.1965 167.499 35.9224 167.865 35.7285C168.231 35.5345 168.67 35.4409 169.182 35.4409C169.694 35.4409 170.132 35.5345 170.498 35.7285C170.864 35.9224 171.136 36.1965 171.329 36.5643C171.522 36.9321 171.615 37.3667 171.615 37.8816V38.8178C171.615 39.3327 171.522 39.774 171.329 40.1418C171.136 40.5096 170.864 40.7904 170.498 40.9777C170.132 41.1716 169.694 41.2652 169.182 41.2652C168.67 41.2652 168.231 41.1716 167.865 40.9777V40.9844ZM169.88 39.5667C170.046 39.3929 170.132 39.1388 170.132 38.8245V37.8883C170.132 37.574 170.053 37.3266 169.88 37.1528C169.713 36.9789 169.481 36.892 169.182 36.892C168.882 36.892 168.656 36.9789 168.49 37.1528C168.324 37.3266 168.244 37.574 168.244 37.8883V38.8245C168.244 39.1455 168.324 39.3929 168.49 39.5667C168.65 39.7406 168.882 39.8342 169.182 39.8342C169.481 39.8342 169.713 39.7473 169.88 39.5667Z" fill="white"/>
<path d="M174.322 38.9714C174.322 39.2456 174.401 39.4596 174.554 39.6067C174.707 39.7605 174.927 39.834 175.206 39.834C175.485 39.834 175.698 39.7538 175.851 39.6C176.004 39.4462 176.077 39.2255 176.077 38.938L176.15 40.1751C176.044 40.4827 175.871 40.7435 175.625 40.9574C175.379 41.1714 175.08 41.2717 174.734 41.2717C174.129 41.2717 173.663 41.0778 173.331 40.6833C172.998 40.2888 172.839 39.7404 172.839 39.0182V35.521H174.328V38.9647L174.322 38.9714ZM176.07 35.5277H177.553V41.1982H176.07V35.5277Z" fill="white"/>
<path d="M179.022 35.5277H180.512V41.1981H179.022V35.5277ZM182.28 37.7611C182.28 37.4869 182.201 37.2662 182.048 37.1191C181.888 36.9653 181.669 36.8918 181.376 36.8918C181.084 36.8918 180.891 36.972 180.738 37.1258C180.585 37.2796 180.512 37.5003 180.512 37.7811L180.399 36.524C180.572 36.1696 180.771 35.9021 181.01 35.7216C181.25 35.541 181.542 35.4541 181.901 35.4541C182.493 35.4541 182.952 35.6547 183.278 36.0559C183.604 36.4571 183.77 37.0255 183.77 37.7611V41.2048H182.28V37.7678V37.7611Z" fill="white"/>
<path d="M184.8 35.5276H187.559V36.8048H184.8V35.5276ZM185.724 40.8437C185.491 40.5896 185.378 40.2152 185.378 39.7203V33.876H186.868V39.3459C186.868 39.4863 186.894 39.5933 186.947 39.6668C187.001 39.7404 187.08 39.7805 187.187 39.7805H187.559V41.2249H186.808C186.316 41.2249 185.957 41.0978 185.724 40.8437Z" fill="white"/>
<path d="M189.035 40.8436C188.736 40.5561 188.59 40.1147 188.59 39.5263C188.59 38.9378 188.756 38.5433 189.089 38.2624C189.421 37.9816 189.926 37.8412 190.598 37.8412H192.007L192.081 38.9846H190.598C190.372 38.9846 190.206 39.0314 190.092 39.1184C189.979 39.2053 189.926 39.3457 189.926 39.5263C189.926 39.7068 189.999 39.8472 190.139 39.9409C190.279 40.0278 190.491 40.0746 190.777 40.0746C191.176 40.0746 191.469 40.0278 191.662 39.9409C191.854 39.8472 191.954 39.7068 191.954 39.5129L192.067 40.3354C192.047 40.5427 191.954 40.7098 191.788 40.857C191.622 40.9974 191.416 41.1044 191.17 41.1779C190.924 41.2515 190.658 41.2849 190.385 41.2849C189.78 41.2849 189.328 41.1378 189.029 40.8503L189.035 40.8436ZM191.961 37.6004C191.961 37.3397 191.874 37.1391 191.702 36.9919C191.529 36.8515 191.283 36.778 190.963 36.778C190.751 36.778 190.545 36.8114 190.338 36.8849C190.132 36.9518 189.953 37.0521 189.793 37.1725L188.869 36.2631C189.095 36.0023 189.388 35.8017 189.76 35.6612C190.126 35.5208 190.538 35.4473 190.99 35.4473C191.482 35.4473 191.901 35.5275 192.247 35.6947C192.593 35.8619 192.858 36.1026 193.045 36.4169C193.224 36.7311 193.317 37.1123 193.317 37.5536V41.198H191.967V37.6071L191.961 37.6004Z" fill="white"/>
<path d="M194.78 35.5277H196.27V41.1981H194.78V35.5277ZM198.038 37.7611C198.038 37.4869 197.958 37.2662 197.806 37.1191C197.646 36.9653 197.427 36.8918 197.134 36.8918C196.841 36.8918 196.649 36.972 196.496 37.1258C196.343 37.2796 196.27 37.5003 196.27 37.7811L196.157 36.524C196.329 36.1696 196.529 35.9021 196.768 35.7216C197.008 35.541 197.3 35.4541 197.659 35.4541C198.251 35.4541 198.71 35.6547 199.036 36.0559C199.361 36.4571 199.528 37.0255 199.528 37.7611V41.2048H198.038V37.7678V37.7611Z" fill="white"/>
<path d="M200.559 35.5276H203.318V36.8048H200.559V35.5276ZM201.483 40.8437C201.25 40.5896 201.137 40.2152 201.137 39.7203V33.876H202.626V39.3459C202.626 39.4863 202.653 39.5933 202.706 39.6668C202.759 39.7404 202.839 39.7805 202.946 39.7805H203.318V41.2249H202.567C202.075 41.2249 201.715 41.0978 201.483 40.8437Z" fill="white"/>
<path d="M206.27 41.2784C206.27 41.2784 206.11 41.2516 205.791 41.1915C205.472 41.1313 205.173 41.0443 204.893 40.924C204.614 40.8103 204.368 40.6699 204.155 40.5027L205.073 39.3526C205.345 39.5264 205.631 39.6602 205.924 39.7538C206.216 39.8474 206.502 39.8942 206.768 39.8942C207.114 39.8942 207.387 39.8541 207.579 39.7738C207.772 39.6936 207.865 39.5866 207.865 39.4462C207.865 39.3191 207.825 39.2255 207.739 39.1586C207.653 39.0918 207.546 39.045 207.42 39.0182C207.287 38.9915 207.107 38.9647 206.875 38.9447C206.808 38.938 206.742 38.9313 206.675 38.9246C206.609 38.9179 206.542 38.9112 206.469 38.9045C206.456 38.9045 206.443 38.9045 206.423 38.8978C206.409 38.8978 206.389 38.8978 206.376 38.8978C205.957 38.8444 205.618 38.7775 205.365 38.6972C205.113 38.617 204.9 38.4632 204.72 38.2358C204.548 38.0085 204.454 37.6808 204.454 37.2462C204.454 36.865 204.548 36.5441 204.727 36.2766C204.907 36.0091 205.173 35.8018 205.512 35.6614C205.857 35.521 206.27 35.4541 206.762 35.4541C207.048 35.4541 207.333 35.4808 207.619 35.541C207.905 35.6012 208.178 35.6815 208.437 35.7951C208.696 35.9021 208.936 36.0359 209.162 36.1897L208.278 37.2796C208.032 37.1392 207.772 37.0322 207.506 36.9587C207.24 36.8851 206.981 36.845 206.735 36.845C206.436 36.845 206.203 36.8784 206.037 36.952C205.871 37.0188 205.784 37.1191 205.784 37.2395C205.784 37.3331 205.831 37.4067 205.917 37.4602C206.004 37.5137 206.117 37.5538 206.25 37.5738C206.383 37.6006 206.575 37.6207 206.828 37.6541C206.861 37.6541 206.895 37.6608 206.928 37.6675C206.961 37.6742 206.994 37.6741 207.028 37.6808C207.041 37.6808 207.061 37.6808 207.074 37.6808C207.087 37.6808 207.107 37.6808 207.121 37.6808C207.56 37.7343 207.919 37.7945 208.191 37.8748C208.464 37.955 208.703 38.1155 208.896 38.3562C209.089 38.5969 209.189 38.9513 209.189 39.4127C209.189 39.8073 209.095 40.1416 208.909 40.4225C208.723 40.7033 208.444 40.9173 208.085 41.0644C207.726 41.2115 207.287 41.2851 206.775 41.2851H206.27V41.2784Z" fill="white"/>
<path d="M212.46 40.8436C212.161 40.5561 212.015 40.1147 212.015 39.5263C212.015 38.9378 212.181 38.5433 212.513 38.2624C212.846 37.9816 213.351 37.8412 214.023 37.8412H215.432L215.505 38.9846H214.023C213.797 38.9846 213.63 39.0314 213.517 39.1184C213.404 39.2053 213.351 39.3457 213.351 39.5263C213.351 39.7068 213.424 39.8472 213.564 39.9409C213.703 40.0278 213.916 40.0746 214.202 40.0746C214.601 40.0746 214.894 40.0278 215.086 39.9409C215.279 39.8472 215.379 39.7068 215.379 39.5129L215.492 40.3354C215.472 40.5427 215.379 40.7098 215.213 40.857C215.047 40.9974 214.84 41.1044 214.594 41.1779C214.348 41.2515 214.082 41.2849 213.81 41.2849C213.205 41.2849 212.753 41.1378 212.453 40.8503L212.46 40.8436ZM215.386 37.6004C215.386 37.3397 215.299 37.1391 215.126 36.9919C214.953 36.8515 214.707 36.778 214.388 36.778C214.176 36.778 213.969 36.8114 213.763 36.8849C213.557 36.9518 213.378 37.0521 213.218 37.1725L212.294 36.2631C212.52 36.0023 212.813 35.8017 213.185 35.6612C213.551 35.5208 213.963 35.4473 214.415 35.4473C214.907 35.4473 215.326 35.5275 215.672 35.6947C216.017 35.8619 216.283 36.1026 216.469 36.4169C216.649 36.7311 216.742 37.1123 216.742 37.5536V41.198H215.392V37.6071L215.386 37.6004Z" fill="white"/>
<path d="M218.205 35.5277H219.694V41.1981H218.205V35.5277ZM221.463 37.7611C221.463 37.4869 221.383 37.2662 221.23 37.1191C221.071 36.9653 220.851 36.8918 220.559 36.8918C220.266 36.8918 220.073 36.972 219.921 37.1258C219.768 37.2796 219.694 37.5003 219.694 37.7811L219.581 36.524C219.754 36.1696 219.954 35.9021 220.193 35.7216C220.432 35.541 220.725 35.4541 221.084 35.4541C221.676 35.4541 222.135 35.6547 222.46 36.0559C222.786 36.4571 222.952 37.0255 222.952 37.7611V41.2048H221.463V37.7678V37.7611Z" fill="white"/>
<path d="M225.126 40.984C224.84 40.79 224.627 40.5092 224.474 40.1481C224.328 39.7803 224.255 39.339 224.255 38.8241V37.9147C224.255 37.3931 224.328 36.9451 224.474 36.5773C224.621 36.2028 224.84 35.922 225.126 35.7281C225.412 35.5341 225.751 35.4405 226.15 35.4405C226.449 35.4405 226.722 35.5275 226.974 35.708C227.227 35.8885 227.42 36.1426 227.573 36.477L227.46 37.7341C227.46 37.5402 227.426 37.3797 227.36 37.246C227.293 37.1122 227.2 37.0053 227.074 36.9384C226.948 36.8648 226.795 36.8314 226.622 36.8314C226.343 36.8314 226.13 36.925 225.97 37.1189C225.817 37.3128 225.738 37.5803 225.738 37.9214V38.8241C225.738 39.1651 225.817 39.4259 225.97 39.6131C226.123 39.8004 226.343 39.894 226.622 39.894C226.801 39.894 226.948 39.8606 227.074 39.787C227.2 39.7201 227.293 39.6198 227.36 39.4861C227.426 39.3524 227.46 39.1986 227.46 39.0113L227.533 40.3086C227.42 40.6162 227.24 40.8569 227.001 41.0241C226.762 41.1912 226.476 41.2782 226.15 41.2782C225.751 41.2782 225.412 41.1846 225.126 40.9906V40.984ZM227.46 33.2539H228.949V41.1912H227.46V33.2539Z" fill="white"/>
<path d="M234.681 33.2539H235.625L238.643 41.1912H237.041L235.153 35.7682L233.264 41.1912H231.662L234.681 33.2539ZM233.112 38.4831H237.267V39.9274H233.112V38.4831Z" fill="white"/>
<path d="M240.219 40.984C239.933 40.79 239.72 40.5092 239.567 40.1481C239.421 39.7803 239.348 39.339 239.348 38.8241V37.9147C239.348 37.3931 239.421 36.9451 239.567 36.5773C239.713 36.2028 239.933 35.922 240.219 35.7281C240.505 35.5341 240.844 35.4405 241.243 35.4405C241.542 35.4405 241.814 35.5275 242.067 35.708C242.32 35.8885 242.513 36.1426 242.665 36.477L242.552 37.7341C242.552 37.5402 242.519 37.3797 242.453 37.246C242.386 37.1122 242.293 37.0053 242.167 36.9384C242.04 36.8648 241.888 36.8314 241.715 36.8314C241.435 36.8314 241.223 36.925 241.063 37.1189C240.91 37.3128 240.83 37.5803 240.83 37.9214V38.8241C240.83 39.1651 240.91 39.4259 241.063 39.6131C241.216 39.8004 241.435 39.894 241.715 39.894C241.894 39.894 242.04 39.8606 242.167 39.787C242.293 39.7201 242.386 39.6198 242.453 39.4861C242.519 39.3524 242.552 39.1986 242.552 39.0113L242.626 40.3086C242.513 40.6162 242.333 40.8569 242.094 41.0241C241.854 41.1912 241.568 41.2782 241.243 41.2782C240.844 41.2782 240.505 41.1846 240.219 40.9906V40.984ZM242.552 33.2539H244.042V41.1912H242.552V33.2539Z" fill="white"/>
<path d="M248.716 35.5278H250.199L248.085 41.1983H247.034L244.92 35.5278H246.403L247.566 39.0853L248.73 35.5278H248.716Z" fill="white"/>
<path d="M250.983 33.2539H252.473V34.7518H250.983V33.2539ZM250.983 35.5275H252.473V41.1979H250.983V35.5275Z" fill="white"/>
<path d="M255.505 41.2784C255.505 41.2784 255.345 41.2516 255.026 41.1915C254.707 41.1313 254.408 41.0443 254.129 40.924C253.849 40.8103 253.603 40.6699 253.391 40.5027L254.308 39.3526C254.581 39.5264 254.867 39.6602 255.159 39.7538C255.452 39.8474 255.738 39.8942 256.004 39.8942C256.349 39.8942 256.622 39.8541 256.815 39.7738C257.008 39.6936 257.101 39.5866 257.101 39.4462C257.101 39.3191 257.061 39.2255 256.974 39.1586C256.888 39.0918 256.782 39.045 256.655 39.0182C256.522 38.9915 256.343 38.9647 256.11 38.9447C256.044 38.938 255.977 38.9313 255.911 38.9246C255.844 38.9179 255.778 38.9112 255.704 38.9045C255.691 38.9045 255.678 38.9045 255.658 38.8978C255.645 38.8978 255.625 38.8978 255.611 38.8978C255.192 38.8444 254.853 38.7775 254.601 38.6972C254.348 38.617 254.135 38.4632 253.956 38.2358C253.783 38.0085 253.69 37.6808 253.69 37.2462C253.69 36.865 253.783 36.5441 253.962 36.2766C254.142 36.0091 254.408 35.8018 254.747 35.6614C255.093 35.521 255.505 35.4541 255.997 35.4541C256.283 35.4541 256.569 35.4808 256.855 35.541C257.141 35.6012 257.413 35.6815 257.673 35.7951C257.932 35.9021 258.171 36.0359 258.397 36.1897L257.513 37.2796C257.267 37.1392 257.008 37.0322 256.742 36.9587C256.476 36.8851 256.216 36.845 255.97 36.845C255.671 36.845 255.438 36.8784 255.272 36.952C255.106 37.0188 255.02 37.1191 255.02 37.2395C255.02 37.3331 255.066 37.4067 255.153 37.4602C255.239 37.5137 255.352 37.5538 255.485 37.5738C255.618 37.6006 255.811 37.6207 256.063 37.6541C256.097 37.6541 256.13 37.6608 256.163 37.6675C256.196 37.6742 256.23 37.6741 256.263 37.6808C256.276 37.6808 256.296 37.6808 256.309 37.6808C256.323 37.6808 256.343 37.6808 256.356 37.6808C256.795 37.7343 257.154 37.7945 257.427 37.8748C257.699 37.955 257.938 38.1155 258.131 38.3562C258.324 38.5969 258.424 38.9513 258.424 39.4127C258.424 39.8073 258.331 40.1416 258.145 40.4225C257.958 40.7033 257.679 40.9173 257.32 41.0644C256.961 41.2115 256.522 41.2851 256.01 41.2851H255.505V41.2784Z" fill="white"/>
<path d="M260.578 40.9844C260.212 40.7904 259.94 40.5096 259.747 40.1418C259.554 39.774 259.461 39.326 259.461 38.8044V37.8816C259.461 37.3667 259.554 36.9321 259.747 36.5643C259.94 36.1965 260.212 35.9224 260.578 35.7285C260.944 35.5345 261.382 35.4409 261.894 35.4409C262.406 35.4409 262.845 35.5345 263.211 35.7285C263.577 35.9224 263.849 36.1965 264.042 36.5643C264.235 36.9321 264.328 37.3667 264.328 37.8816V38.8178C264.328 39.3327 264.235 39.774 264.042 40.1418C263.849 40.5096 263.577 40.7904 263.211 40.9777C262.845 41.1716 262.406 41.2652 261.894 41.2652C261.382 41.2652 260.944 41.1716 260.578 40.9777V40.9844ZM262.593 39.5667C262.759 39.3929 262.845 39.1388 262.845 38.8245V37.8883C262.845 37.574 262.765 37.3266 262.593 37.1528C262.426 36.9789 262.194 36.892 261.894 36.892C261.595 36.892 261.369 36.9789 261.203 37.1528C261.037 37.3266 260.957 37.574 260.957 37.8883V38.8245C260.957 39.1455 261.037 39.3929 261.203 39.5667C261.363 39.7406 261.595 39.8342 261.894 39.8342C262.194 39.8342 262.426 39.7473 262.593 39.5667Z" fill="white"/>
<path d="M265.685 35.5275H267.28V41.198H265.685V35.5275ZM268.59 36.9451C268.484 36.9117 268.364 36.8916 268.224 36.8916C267.925 36.8916 267.693 36.9919 267.526 37.1859C267.36 37.3798 267.28 37.6539 267.28 37.995L267.167 36.5172C267.32 36.1761 267.526 35.9153 267.772 35.7281C268.018 35.5409 268.291 35.4473 268.59 35.4473C268.823 35.4473 269.036 35.4874 269.228 35.5609C269.421 35.6345 269.588 35.7482 269.727 35.8886L268.856 37.1056C268.783 37.0321 268.697 36.9786 268.59 36.9384V36.9451Z" fill="white"/>
<path d="M272.081 41.2784C272.081 41.2784 271.922 41.2516 271.602 41.1915C271.283 41.1313 270.984 41.0443 270.705 40.924C270.426 40.8103 270.18 40.6699 269.967 40.5027L270.884 39.3526C271.157 39.5264 271.443 39.6602 271.735 39.7538C272.028 39.8474 272.314 39.8942 272.58 39.8942C272.926 39.8942 273.198 39.8541 273.391 39.7738C273.584 39.6936 273.677 39.5866 273.677 39.4462C273.677 39.3191 273.637 39.2255 273.551 39.1586C273.464 39.0918 273.358 39.045 273.231 39.0182C273.098 38.9915 272.919 38.9647 272.686 38.9447C272.62 38.938 272.553 38.9313 272.487 38.9246C272.42 38.9179 272.354 38.9112 272.281 38.9045C272.267 38.9045 272.254 38.9045 272.234 38.8978C272.221 38.8978 272.201 38.8978 272.188 38.8978C271.769 38.8444 271.43 38.7775 271.177 38.6972C270.924 38.617 270.711 38.4632 270.532 38.2358C270.359 38.0085 270.266 37.6808 270.266 37.2462C270.266 36.865 270.359 36.5441 270.539 36.2766C270.718 36.0091 270.984 35.8018 271.323 35.6614C271.669 35.521 272.081 35.4541 272.573 35.4541C272.859 35.4541 273.145 35.4808 273.431 35.541C273.717 35.6012 273.989 35.6815 274.249 35.7951C274.508 35.9021 274.747 36.0359 274.973 36.1897L274.089 37.2796C273.843 37.1392 273.584 37.0322 273.318 36.9587C273.052 36.8851 272.793 36.845 272.547 36.845C272.247 36.845 272.015 36.8784 271.848 36.952C271.682 37.0188 271.596 37.1191 271.596 37.2395C271.596 37.3331 271.642 37.4067 271.729 37.4602C271.815 37.5137 271.928 37.5538 272.061 37.5738C272.194 37.6006 272.387 37.6207 272.64 37.6541C272.673 37.6541 272.706 37.6608 272.739 37.6675C272.773 37.6742 272.806 37.6741 272.839 37.6808C272.852 37.6808 272.872 37.6808 272.886 37.6808C272.899 37.6808 272.919 37.6808 272.932 37.6808C273.371 37.7343 273.73 37.7945 274.003 37.8748C274.275 37.955 274.515 38.1155 274.707 38.3562C274.9 38.5969 275 38.9513 275 39.4127C275 39.8073 274.907 40.1416 274.721 40.4225C274.535 40.7033 274.255 40.9173 273.896 41.0644C273.537 41.2115 273.098 41.2851 272.586 41.2851H272.081V41.2784Z" fill="white"/>
<path d="M28.5971 1.15682C27.4269 -0.220683 25.3524 -0.387855 23.9827 0.782351L1.45611 19.7063C0.0864262 20.8831 -0.558521 22.3008 0.605043 23.685L1.08377 24.3536L7.26063 31.8162C7.24068 31.5086 7.22738 31.1943 7.22738 30.8867C7.22738 26.4266 9.23536 22.1135 12.2739 19.2047L28.2181 5.80421C29.5878 4.62731 29.754 2.541 28.5904 1.1635L28.5971 1.15682Z" fill="#4679E6"/>
<path d="M19.7071 47.0691C20.8773 48.4466 22.9518 48.6137 24.3215 47.4435L46.8414 28.5196C48.2111 27.3427 48.8561 25.9251 47.6925 24.5409L47.2138 23.8722L41.0369 16.4097C41.0569 16.7173 41.0702 17.0315 41.0702 17.3391C41.0702 21.7993 39.0622 26.1123 36.0236 29.0211L20.0795 42.4217C18.7098 43.5986 18.5436 45.6849 19.7071 47.0624V47.0691Z" fill="#4679E6"/>
<path d="M17.0214 35.7416C10.5188 41.6996 7.66639 31.4486 9.23554 26.6274C10.326 27.7775 12.7994 27.8109 14.1558 26.6274L31.2768 12.0499C37.7794 6.09193 40.6318 16.3429 39.0627 21.1642C37.9722 20.014 35.4988 19.9806 34.1425 21.1642L17.0214 35.7416Z" fill="white"/>
</g>
<defs>
<clipPath id="clip0_1882_9731">
<rect width="275" height="48.2192" fill="white"/>
</clipPath>
</defs>
</svg>
